<?xml version="1.0" encoding="utf-8"?><svg xmlns="http://www.w3.org/2000/svg" xmlns:xlink="http://www.w3.org/1999/xlink"><symbol viewBox="0 0 32 32" id="apitherapy" xmlns="http://www.w3.org/2000/svg"><path d="M4.188 25.55c3.48 2.177 3.25 2.064 3.414 2.064.164 0-.042.094 3.204-1.928 3.25 2.031 3.044 1.928 3.203 1.928.16 0 0 .07 2.617-1.566a.402.402 0 00-.427-.68l-2.195 1.374-2.8-1.75v-2.758l1.464-.914a.402.402 0 00-.427-.68l-1.435.9-2.8-1.75v-2.757l2.8-1.75c1.561.976 1.458.93 1.57.948a.402.402 0 00.446-.244.4.4 0 00-.154-.483l-1.464-.915v-2.758l2.8-1.749 2.8 1.75v.576a.398.398 0 10.798 0v-.576l2.8-1.75 2.8 1.75v2.978a.398.398 0 10.797 0v-3.204a.395.395 0 00-.187-.337l-3.016-1.886V6.4a.395.395 0 00-.188-.337l-3.19-2.003a.402.402 0 00-.421 0l-2.988 1.867-2.992-1.867a.402.402 0 00-.422 0L7.39 6.063a.401.401 0 00-.188.337v2.98l-3.015 1.885a.401.401 0 00-.188.338v3.203c0 .136.07.268.188.338l3.015 1.885v2.758l-3.015 1.886a.401.401 0 00-.188.337v3.204c0 .136.07.262.188.337zm13.02-20.679l2.8 1.75v2.758l-2.8 1.749-2.8-1.75V6.622l2.8-1.75zm-6.402 0l2.8 1.75v2.758l-2.8 1.749-2.8-1.75V6.622l2.8-1.75zm-6.004 6.956l2.8-1.75 2.8 1.75v2.758l-2.8 1.75-2.8-1.75v-2.758zm0 10.403l2.8-1.75 2.8 1.75v2.758l-2.8 1.75-2.8-1.75V22.23z"/><path d="M22.41 16.01v-.403a2.42 2.42 0 00-.84-1.824l.398-.802a.4.4 0 00-.717-.357l-.37.746a2.385 2.385 0 00-1.746 0l-.37-.746a.397.397 0 00-.333-.225.4.4 0 00-.385.582l.399.802a2.395 2.395 0 00-.844 1.824v.404c-.366-.005-.76-.005-1.201-.005-2.125 0-4.404.966-4.404 2.401 0 1.726 3.25 2.631 4.868 2.36-.037.318-.065.755-.065 1.045 0 2.8 1.2 5.038 2.8 5.361v.446a.398.398 0 10.797 0v-.45c1.6-.324 2.8-2.561 2.8-5.361 0-.286-.028-.727-.066-1.041 1.637.271 4.869-.643 4.869-2.36 0-1.435-2.275-2.401-4.404-2.401-.404 0-.812 0-1.187.005zm-4.002-.403a1.598 1.598 0 113.2 0v.422c-.54-.01-1.084.07-1.6.23a4.765 4.765 0 00-1.604-.23v-.422h.004zm1.604 2.552c.188.375.418.727.69 1.046h-1.384c.268-.32.502-.671.694-1.046zm-7.208.248c0-.722 1.66-1.6 3.602-1.6.802 0 2.692-.013 3.19.146-.137.962-1.535 3.058-3.19 3.058-1.937-.004-3.602-.881-3.602-1.604zm5.689 1.6h3.025c.244.192.507.356.783.492l.043.31h-2.735a.398.398 0 100 .797h2.79c.02.267.015.535-.013.802H17.63a4.574 4.574 0 01-.014-.802h.39a.398.398 0 100-.797h-.334l.042-.32c.282-.13.54-.29.779-.482zm-.286 4.802h1.8a.398.398 0 100-.797h-2.096a7.63 7.63 0 01-.183-.802h4.564a7.63 7.63 0 01-.183.802h-.497a.398.398 0 100 .797h.202c-.976 2.134-2.632 2.134-3.607 0zm9.005-6.402c0 .995-2.974 1.998-4.4 1.445a4.403 4.403 0 01-2.391-2.899c.576-.173 2.307-.145 3.189-.15 1.942.005 3.602.882 3.602 1.604z"/></symbol><symbol viewBox="0 0 15 29" id="arrow-left" xmlns="http://www.w3.org/2000/svg"><path d="M14 28L1.914 15.914a2 2 0 010-2.828L14 1"/></symbol><symbol viewBox="0 0 15 29" id="arrow-right" xmlns="http://www.w3.org/2000/svg"><path d="M1 1l12.086 12.086a2 2 0 010 2.828L1 28"/></symbol><symbol viewBox="0 0 68 68" id="benefit-arm" xmlns="http://www.w3.org/2000/svg"><path d="M51.937 15.45c-6.027 0-13.776 4.305-13.489 13.201 0 0-11.766-3.73-15.21 8.61 0 0-2.01-4.305-4.592-6.314-2.87-2.008-6.314-7.174-6.601-9.757.287-1.435.574-1.435 1.148-1.722.287 0 .287 2.296 2.87 2.583 2.296-.287 2.87-.861 3.73-2.01l2.584-2.87s2.583-3.443.287-5.165c-2.01-2.01-5.74-5.74-10.332-4.88C9.749 7.702 7.74 9.71 7.74 9.71l-3.444 3.157S2 15.163 2 19.755c0 4.018.861 10.619.861 10.619l1.148 6.887c.287 1.722 2.583 11.767 8.036 17.22 3.444 4.018 5.453 5.74 7.175 6.027 2.87 0 4.305-1.722 6.6-1.722 2.297 0 4.593 1.722 9.471 1.722 4.88 0 15.785-2.87 20.377-16.933C59.973 41.853 66 38.696 66 29.225c0-9.47-8.323-13.775-14.063-13.775zm2.01 26.403C50.788 54.481 40.743 57.925 35.864 58.5c-4.592 0-7.174-1.722-10.618-1.722-2.01 0-4.88 1.722-5.74 1.722-.861 0-3.157-2.009-6.027-5.166-2.87-3.157-4.018-6.027-5.166-8.323-1.148-2.296-3.157-11.48-3.157-11.48s-.861-9.183-.861-13.201c0-3.731 1.722-6.027 1.722-6.027l4.592-4.018c2.583-2.01 5.74-.574 5.74-.574s3.157 2.009 4.305 3.157c1.435 1.148 0 2.296 0 2.296s-3.157 4.018-4.305 4.305c-1.435.287-1.722-3.157-1.722-3.157-1.435.574-3.731 1.148-4.592 3.73-.861 3.158 3.73 9.758 7.175 12.915 3.157 3.157 5.166 8.323 5.166 8.323l2.583-.86s-.287-6.028 4.879-9.184c5.74-3.157 10.905 1.148 10.905 1.148-1.722-14.35 10.906-14.637 11.767-14.637.861 0 10.906.86 11.767 10.905-.574 11.48-10.332 13.202-10.332 13.202z"/></symbol><symbol viewBox="0 0 68 68" id="benefit-face" xmlns="http://www.w3.org/2000/svg"><path d="M34 2C16.431 2 2 16.431 2 34c0 17.569 14.431 32 32 32 17.569 0 32-14.431 32-32C66 16.431 51.569 2 34 2zm0 61.49C17.686 63.49 4.51 50.314 4.51 34S17.686 4.51 34 4.51 63.49 17.686 63.49 34 50.314 63.49 34 63.49z"/><path d="M34 50.627c-10.98 0-17.569-9.725-17.569-9.725l-2.196 1.569C23.02 53.765 34 53.45 34 53.45s10.98.627 19.765-10.98l-2.196-1.569S44.98 50.627 34 50.627zM23.333 37.451c7.53-3.451 8.785-7.843 8.785-10.04 0-2.509-1.569-5.333-4.393-5.333-3.137 0-4.392 1.57-4.392 1.57s-1.255-1.57-4.392-1.57c-2.823 0-4.392 3.138-4.392 5.334 0 2.196 1.255 6.588 8.784 10.039zm0-10.667c1.569-2.51 5.961-2.823 6.275.314 0 4.392-6.275 7.53-6.275 7.53s-6.274-3.138-6.274-7.53c.313-3.137 4.706-2.823 6.274-.314zm21.334 10.667c7.53-3.451 8.784-7.843 8.784-9.726 0-2.51-1.569-5.333-4.392-5.333-3.137 0-4.392 1.569-4.392 1.569s-1.255-1.569-4.392-1.569c-2.824 0-4.393 3.137-4.393 5.334 0 1.882 1.255 6.274 8.785 9.725zm0-10.667c1.568-2.51 5.96-2.823 6.274.314 0 4.392-6.274 7.53-6.274 7.53s-6.275-3.138-6.275-7.53c.314-3.137 4.706-2.823 6.275-.314z"/></symbol><symbol viewBox="0 0 68 69" id="benefit-man" xmlns="http://www.w3.org/2000/svg"><path d="M62.03 19.665c.69-.69 1.38-1.38 1.725-2.07 2.415-3.105 2.07-4.485-.345-6.555-2.415-2.07-6.21 1.035-6.21 1.035l-.69.69c-3.795-3.45-8.625-6.21-14.145-7.59C40.295 2.07 37.19 0 33.74 0c-3.795 0-6.9 2.415-8.97 5.52-4.485 1.38-8.625 3.795-12.075 6.9-.69-.345-2.07-1.725-3.795-2.07-2.415-.345-4.83 1.38-5.175 3.795 0 1.38 1.38 3.45 3.105 5.52C3.725 24.495 2 30.015 2 36.225 2 53.82 16.49 68.31 34.43 68.31c6.21 0 12.42-1.725 17.25-4.83l-1.035-2.415c-4.485-11.385-3.45-18.63-3.105-22.08 1.035-3.795 4.83-8.97 6.9-11.73 1.38-1.725 3.45-3.45 5.52-5.52 2.76 4.14 4.14 8.97 4.14 14.49 0 7.935-3.45 15.18-8.625 20.7l2.07 1.725c5.865-5.865 9.315-13.8 9.315-22.425 0-6.21-1.725-11.73-4.83-16.56zM33.74 2.76c4.485 0 7.935 4.14 7.935 9.315s-3.45 9.315-7.935 9.315c-4.485 0-7.935-3.795-7.935-9.315s3.45-9.315 7.935-9.315zm0 21.39c5.865 0 10.695-5.52 10.695-12.075 0-1.38-.345-2.415-.69-3.795 4.14 1.38 7.59 3.45 10.695 6.21-2.76 2.415-6.9 5.52-8.97 6.9-3.105 2.415-8.28 4.83-12.42 4.83-4.14 0-6.21-1.725-9.315-3.105-2.76-1.38-7.245-6.555-9.315-8.625 2.76-2.415 5.865-4.14 8.97-5.52 0 1.035-.345 2.07-.345 3.105 0 6.9 4.83 12.075 10.695 12.075zM4.76 36.225c0-5.175 1.38-10.005 3.795-14.49L9.59 22.77s8.625 10.005 10.35 12.42c1.725 2.415-.345 4.14-1.725 10.35-1.035 4.83-1.035 11.385-1.035 14.49C9.59 54.51 4.76 45.885 4.76 36.225zm53.475-16.56c-1.38 1.38-6.21 5.52-10.35 12.075s-3.45 11.73-3.105 15.525c.345 3.795 1.38 7.245 1.725 8.625.345 1.035 1.725 4.83 2.07 5.865-4.14 2.07-8.97 3.45-13.8 3.45-5.52 0-10.35-1.38-14.835-3.795 0-11.73.69-13.455 1.035-15.18 0-1.725 1.035-5.175 2.07-7.935.69-2.415-.345-4.485-1.38-5.52C20.63 31.74 10.625 19.665 8.9 17.25c-2.07-2.415-2.415-3.45-.69-4.14 1.725-1.035 6.21 4.485 8.28 6.9 1.725 2.415 9.66 8.97 16.905 8.625 7.245-.345 12.42-4.14 14.49-5.52 1.725-1.38 10.695-8.625 12.075-9.66 1.38-1.035 3.105 0 2.76 1.035-.345 1.035-3.105 3.795-4.485 5.175z"/></symbol><symbol viewBox="0 0 31 24" id="checkmark" xmlns="http://www.w3.org/2000/svg"><g clip-path="url(#agclip0)"><path d="M28.414 1.655C26.483-.552 23.172-.552 21.24 1.38L11.034 11.586 8.829 9.38c-1.931-1.93-5.242-1.93-7.173 0H1.38c-1.93 1.931-1.93 5.242 0 7.173l6.07 6.069C8.551 23.724 9.93 24 11.033 24c1.38 0 2.483-.552 3.587-1.38L28.414 8.828c1.93-1.93 1.93-5.24 0-7.172z"/></g><defs><clipPath id="agclip0"><path d="M0 0h30.069v24H0z"/></clipPath></defs></symbol><symbol viewBox="0 0 24 24" id="close" xmlns="http://www.w3.org/2000/svg"><g clip-path="url(#ahclip0)"><path d="M16.267 12L23.2 5.067c1.067-1.067 1.067-2.667 0-3.6l-.533-.534C21.6-.133 20-.133 19.067.933L12 7.733 5.067.8C4-.267 2.4-.267 1.333.8L.8 1.333C-.267 2.4-.267 4 .8 4.933L7.733 12 .8 18.933C-.267 20-.267 21.6.8 22.533l.533.667c1.067 1.067 2.667 1.067 3.6 0L12 16.267l6.933 6.933c1.067 1.067 2.667 1.067 3.6 0l.534-.533c1.066-1.067 1.066-2.667 0-3.6L16.267 12z"/></g><defs><clipPath id="ahclip0"><path d="M0 0h24v24H0z"/></clipPath></defs></symbol><symbol viewBox="0 0 52 52" id="delivery" xmlns="http://www.w3.org/2000/svg"><path d="M8.685 21.095L11.43 18.9h.274c.823 0 1.372-.55 1.372-1.373 0-.549-.274-.823-.549-1.098v-5.763h-1.372v5.764c-.549.274-.823.548-.823 1.097v.275l-2.745 2.195 1.098 1.098z"/><path d="M50.403 35.916v-8.783c0-2.744-1.098-3.842-1.098-3.842s-2.745-3.568-4.391-5.764c-1.647-2.195-3.843-2.195-3.843-2.195H31.74v-1.373c0-1.92-1.373-3.293-3.294-3.293h-7.96C18.567 7.92 15.273 6 11.705 6 5.666 6 1 10.94 1 16.978c0 2.47.823 4.666 2.196 6.587v12.077c0 1.92 1.372 3.293 3.293 3.293h1.372v.275c0 3.293 2.745 6.038 6.039 6.038 3.293 0 6.038-2.745 6.038-6.038v-.275H33.66v.275c0 3.293 2.744 6.038 6.038 6.038 3.293 0 6.038-2.745 6.038-6.038v-.275h.549c4.666.275 4.117-3.019 4.117-3.019zM49.03 26.31v.823H38.327c-.55 0-1.098-.549-1.098-1.097v-4.392c0-.549.549-1.098 1.098-1.098h7.136c.823.824 1.646 1.922 2.195 2.745 1.373 1.647 1.373 3.019 1.373 3.019zM11.704 7.647c5.215 0 9.606 4.117 9.606 9.606s-4.391 9.331-9.606 9.331-9.332-4.39-9.332-9.606c0-5.214 4.117-9.331 9.332-9.331zm1.921 36.228c-2.47 0-4.391-1.92-4.391-4.39 0-2.471 1.921-4.392 4.391-4.392 2.47 0 4.392 1.921 4.392 4.391 0 2.47-1.922 4.391-4.392 4.391zm5.49-6.312c-.824-2.196-3.02-4.117-5.49-4.117s-4.666 1.647-5.49 4.117h-1.92c-.824 0-1.647-.824-1.647-1.647V24.938c1.921 1.646 4.391 2.744 7.136 2.744 6.038 0 10.704-4.94 10.704-10.704 0-1.646-.55-3.293-1.098-4.665h7.136c.823 0 1.647.823 1.647 1.646v21.957c0 .824-.824 1.647-1.647 1.647h-9.332zm20.31 6.312c-2.47 0-4.392-1.92-4.392-4.39 0-2.471 1.921-4.392 4.391-4.392 2.47 0 4.392 1.921 4.392 4.391 0 2.47-1.922 4.391-4.392 4.391zm6.86-6.038h-1.097c-.823-2.47-3.019-4.117-5.49-4.117-2.744 0-4.94 1.647-5.488 4.117h-2.745c.549-.549.823-1.098.823-1.92V16.428h8.509c2.47 0 3.568 1.647 3.568 1.647s-.275.55.274 1.098h-6.313c-1.372 0-2.195 1.098-2.195 2.196v4.391c0 1.372 1.098 2.196 2.196 2.196h10.978v7.136c-.274 3.019-3.02 2.744-3.02 2.744z"/></symbol><symbol viewBox="0 0 24 24" id="f" xmlns="http://www.w3.org/2000/svg"><path d="M24 22.692c0 .72-.589 1.308-1.308 1.308h-6.147v-9.286h3.139l.458-3.597h-3.597V8.828c0-1.046.261-1.765 1.766-1.765h1.896v-3.27c-.327-.065-1.439-.13-2.812-.13-2.746 0-4.643 1.7-4.643 4.773v2.681H9.613v3.597h3.139V24H1.308C.588 24 0 23.411 0 22.692V1.308C0 .588.589 0 1.308 0h21.384C23.412 0 24 .589 24 1.308v21.384z"/></symbol><symbol viewBox="0 0 52 52" id="feature-leaf" xmlns="http://www.w3.org/2000/svg"><path d="M8.48 31.036c0 .616.309 1.233.309 1.849 0 2.465.308 6.47.308 6.47h1.54s0-6.47-.924-9.86c-.924-3.696-1.232-10.474.924-15.404l-1.54-.616s-1.849 3.697-1.849 9.55c0 3.698.308 5.239.616 6.779-1.232-.924-4.621-4.005-4.313-10.475.616-7.394 7.086-14.172 7.086-14.172s11.4 10.783 1.233 22.798l1.232.925s4.621-5.238 4.621-11.092c0-5.853-2.464-10.783-7.086-14.788 0 0-8.01 7.702-8.626 16.945-.308 8.627 6.161 11.707 6.161 11.707l.309-.616z"/><path d="M24.501 23.026c-11.4 3.389-10.783 14.48-10.475 16.945-4.005 4.005-5.854 7.702-5.854 7.702l1.233.616C21.112 28.88 39.29 32.577 39.29 32.577v-1.54c-11.092-1.233-18.794 3.08-24.031 7.394-.309-4.006 1.54-13.556 13.247-14.48 13.556-.309 20.026 7.701 20.026 7.701-7.086 11.4-15.096 12.94-20.025 13.556-5.238.925-11.708-2.772-11.708-2.772l-.616 1.232s5.546 3.697 12.632 3.08C44.219 44.9 50.073 31.345 50.073 31.345c-1.54-3.08-12.94-11.399-25.572-8.318z"/></symbol><symbol viewBox="0 0 27 24" id="gamburger" xmlns="http://www.w3.org/2000/svg"><g clip-path="url(#alclip0)"><path d="M24 0H2.063C.87 0 0 .869 0 2.063v.326c0 1.086.869 1.955 2.063 1.955H24.11a2.062 2.062 0 002.063-2.063v-.218C26.063.87 25.195 0 24 0zm0 9.774H2.063A2.062 2.062 0 000 11.837v.326c0 1.086.869 2.063 2.063 2.063H24.11a2.062 2.062 0 002.063-2.063v-.326c-.109-1.086-.977-2.063-2.172-2.063zm0 9.773H2.063A2.062 2.062 0 000 21.611v.326C0 23.023.869 24 2.063 24H24.11a2.062 2.062 0 002.063-2.063v-.326c-.109-1.086-.977-2.064-2.172-2.064z"/></g><defs><clipPath id="alclip0"><path d="M0 0h26.063v24H0z"/></clipPath></defs></symbol><symbol viewBox="0 0 24 24" id="in" xmlns="http://www.w3.org/2000/svg"><path d="M21.123 0H2.877C1.307 0 0 1.243 0 2.812v18.376C0 22.758 1.308 24 2.877 24h18.246C22.693 24 24 22.758 24 21.188V2.812C24 1.242 22.692 0 21.123 0zm-3.859 3.728c0-.393.327-.72.72-.72h2.288c.393 0 .72.327.72.72V5.95c0 .392-.327.72-.72.72H18.05a.726.726 0 01-.72-.72l-.065-2.223zM12.033 7.39c2.55 0 4.643 2.027 4.643 4.577s-2.093 4.578-4.643 4.578-4.643-2.027-4.643-4.578c0-2.485 2.092-4.577 4.643-4.577zm9.678 13.602c0 .392-.327.72-.72.72H3.009a.726.726 0 01-.72-.72V9.744h2.944c-.393.588-.524 1.635-.524 2.289 0 3.989 3.27 7.259 7.325 7.259 4.054 0 7.324-3.27 7.324-7.26 0-.653-.065-1.7-.589-2.288h3.009l-.066 11.248z"/></symbol><symbol viewBox="0 0 53 38" id="logo" xmlns="http://www.w3.org/2000/svg"><path d="M0 8.565c0-2.461.8-4.43 2.4-6.104C4.1.886 6.1 0 8.6 0c2.6 0 4.6.69 6.2 2.166l-1.2 1.772c-.6-.59-1.4-.985-2.3-1.28-.9-.295-1.7-.492-2.6-.492-1.9 0-3.4.59-4.6 1.772C3 5.218 2.5 6.694 2.5 8.565c0 1.87.6 3.445 1.7 4.725 1.2 1.28 2.7 1.87 4.6 1.87.9 0 1.9-.196 2.8-.59.9-.394 1.7-.886 2.4-1.575l1.3 1.673c-1.8 1.772-4 2.658-6.6 2.658-2.6 0-4.7-.787-6.3-2.46C.8 13.092 0 11.025 0 8.564zm18.3 8.466V.295h2.3V7.58h8.8V.295h2.4v16.638h-2.4V9.648h-8.8v7.285h-2.3v.098zm16.9-8.466c0-2.363.8-4.43 2.5-6.104C39.3.788 41.4 0 43.9 0s4.6.788 6.2 2.461c1.7 1.674 2.5 3.643 2.5 6.104 0 2.46-.8 4.528-2.5 6.202-1.7 1.673-3.7 2.56-6.2 2.56s-4.6-.887-6.2-2.56c-1.7-1.674-2.5-3.741-2.5-6.202zm2.5 0c0 1.87.6 3.445 1.8 4.725 1.2 1.28 2.7 1.87 4.5 1.87 1.8 0 3.3-.59 4.5-1.87 1.2-1.28 1.8-2.855 1.8-4.725 0-1.772-.6-3.347-1.8-4.529-1.2-1.181-2.7-1.87-4.5-1.87-1.8 0-3.3.59-4.5 1.87-1.3 1.182-1.8 2.658-1.8 4.529zM0 29.238c0-2.46.8-4.43 2.4-6.103 1.7-1.575 3.7-2.461 6.2-2.461 2.6 0 4.6.689 6.2 2.165l-1.2 1.772c-.6-.59-1.4-.984-2.3-1.28-.9-.295-1.8-.492-2.6-.492-1.9 0-3.4.591-4.6 1.772-1.1 1.182-1.7 2.757-1.7 4.529 0 1.87.6 3.446 1.7 4.725 1.2 1.28 2.7 1.87 4.6 1.87.9 0 1.9-.196 2.8-.59.9-.394 1.7-.886 2.4-1.575l1.3 1.673c-1.8 1.773-4 2.658-6.6 2.658-2.6 0-4.7-.787-6.3-2.46C.8 33.766 0 31.698 0 29.237zm16.8 0c0-2.46.8-4.43 2.4-6.103 1.6-1.575 3.7-2.461 6.2-2.461 2.6 0 4.6.689 6.2 2.165l-1.2 1.772c-.6-.59-1.4-.984-2.3-1.28-.9-.295-1.8-.492-2.6-.492-1.9 0-3.4.591-4.6 1.772-1.1 1.182-1.7 2.757-1.7 4.529 0 1.87.6 3.446 1.7 4.725 1.2 1.28 2.7 1.87 4.6 1.87.9 0 1.9-.196 2.8-.59.9-.394 1.7-.886 2.4-1.575l1.3 1.673c-1.8 1.773-4 2.658-6.6 2.658-2.6 0-4.7-.787-6.3-2.46-1.5-1.674-2.3-3.742-2.3-6.203zm16.8 0c0-2.362.8-4.43 2.5-6.103 1.6-1.674 3.7-2.461 6.2-2.461s4.6.787 6.2 2.46c1.6 1.674 2.5 3.643 2.5 6.104 0 2.462-.8 4.529-2.5 6.202-1.7 1.674-3.7 2.56-6.2 2.56s-4.6-.886-6.2-2.56c-1.7-1.673-2.5-3.74-2.5-6.202zm2.4 0c0 1.87.6 3.446 1.8 4.726 1.2 1.28 2.7 1.87 4.5 1.87 1.8 0 3.3-.59 4.5-1.87 1.2-1.28 1.8-2.855 1.8-4.726 0-1.772-.6-3.347-1.8-4.528-1.2-1.181-2.7-1.87-4.5-1.87-1.8 0-3.3.59-4.5 1.87-1.2 1.181-1.8 2.658-1.8 4.528z"/></symbol><symbol viewBox="0 0 76 95" id="marker" xmlns="http://www.w3.org/2000/svg"><path d="M38 0C24.783 0 0 10 0 38.333 0 66.667 38 95 38 95s38-28.333 38-56.667C76 10 51.217 0 38 0z"/><path d="M14.539 29.167c0-2.167.66-4.167 2.148-5.667 1.487-1.5 3.304-2.167 5.452-2.167 2.313 0 4.13.667 5.617 2L26.766 25c-.496-.5-1.157-.833-1.983-1.167-.827-.333-1.653-.5-2.314-.5-1.652 0-3.139.5-4.13 1.667-.991 1.167-1.487 2.5-1.487 4.167 0 1.666.496 3.166 1.487 4.333.991 1.167 2.478 1.833 4.13 1.833a6.58 6.58 0 002.479-.5c.826-.333 1.487-.833 2.148-1.5l1.156 1.5c-1.652 1.667-3.635 2.5-5.782 2.5A7.833 7.833 0 0116.852 35c-1.652-1.667-2.313-3.667-2.313-5.833zm16.191 7.666V21.5h2.148v6.667h7.93V21.5h2.148v15.333h-2.148v-6.666h-7.93v6.666H30.73zM45.93 29c0-2.167.661-4 2.148-5.5s3.304-2.167 5.617-2.167c2.314 0 4.131.667 5.618 2.167C60.8 25 61.46 26.833 61.46 29c0 2.333-.661 4.167-2.148 5.667S56.009 37 53.696 37s-4.13-.833-5.618-2.333c-1.322-1.5-2.148-3.334-2.148-5.667zm2.148 0c0 1.667.496 3.167 1.652 4.333C50.887 34.5 52.21 35 53.696 35c1.652 0 2.974-.5 3.965-1.667.991-1.166 1.652-2.666 1.652-4.333 0-1.667-.496-3-1.652-4.167-.992-1.166-2.313-1.666-3.965-1.666-1.653 0-2.974.5-3.966 1.666-.991 1.167-1.652 2.5-1.652 4.167zM15.2 49.167c0-2.167.66-4.167 2.148-5.667 1.487-1.5 3.304-2.167 5.452-2.167 2.313 0 4.13.667 5.617 2L27.426 45c-.496-.5-1.157-.833-1.983-1.167-.826-.333-1.652-.5-2.313-.5-1.652 0-3.139.5-4.13 1.667-.991 1.167-1.487 2.5-1.487 4.167 0 1.666.495 3.166 1.487 4.333.991 1.167 2.478 1.833 4.13 1.833.826 0 1.652-.166 2.479-.5.826-.333 1.486-.833 2.147-1.5l1.157 1.5c-1.652 1.667-3.635 2.5-5.783 2.5A7.833 7.833 0 0117.513 55c-1.652-1.667-2.313-3.667-2.313-5.833zm15.035 0c0-2.167.66-4.167 2.148-5.667 1.486-1.5 3.304-2.167 5.452-2.167 2.313 0 4.13.667 5.617 2L42.295 45c-.495-.5-1.156-.833-1.982-1.167-.826-.333-1.652-.5-2.313-.5-1.652 0-3.14.5-4.13 1.667-.992 1.167-1.487 2.5-1.487 4.167 0 1.666.495 3.166 1.486 4.333.992 1.167 2.479 1.833 4.13 1.833.827 0 1.653-.166 2.48-.5.825-.333 1.486-.833 2.147-1.5l1.157 1.5c-1.653 1.667-3.635 2.5-5.783 2.5-2.313 0-4.13-.833-5.617-2.333-1.488-1.667-2.148-3.667-2.148-5.833zM45.27 49c0-2.167.66-4 2.147-5.5 1.487-1.5 3.305-2.167 5.618-2.167s4.13.667 5.617 2.167C60.14 45 60.8 46.833 60.8 49c0 2.333-.66 4.167-2.148 5.667-1.487 1.5-3.304 2.333-5.617 2.333s-4.13-.833-5.618-2.333c-1.487-1.5-2.148-3.334-2.148-5.667zm2.147 0c0 1.667.496 3.167 1.652 4.333C50.227 54.5 51.548 55 53.035 55c1.652 0 2.974-.5 3.965-1.667.991-1.166 1.652-2.666 1.652-4.333 0-1.667-.495-3-1.652-4.167-.991-1.166-2.313-1.666-3.965-1.666-1.652 0-2.974.5-3.965 1.666-1.157 1.167-1.653 2.5-1.653 4.167z"/></symbol><symbol viewBox="0 0 16 16" id="mute" xmlns="http://www.w3.org/2000/svg"><path d="M4 5H0v6h4l5 4V1zm11.9.6l-.8-.7-2.3 2.4-2.4-2.4-.8.7L12 8l-2.4 2.4.8.7 2.4-2.4 2.3 2.4.8-.7L13.5 8z"/></symbol><symbol viewBox="0 0 24 25" id="nuts" xmlns="http://www.w3.org/2000/svg"><path d="M21.89 5.773a.37.37 0 00-.605.422c1.286 1.828 1.967 3.928 1.967 6.082 0 2.787-1.146 5.482-3.233 7.597-1.573 1.592-3.597 2.782-5.851 3.458-.451-.364-.724-1.089-.85-2.283a2.561 2.561 0 003.746-.269c.063.005.125.005.188.005a2.574 2.574 0 002.494-3.199 4.124 4.124 0 001.717-1.323c.537-.71.82-1.56.82-2.451 0-.887-.288-1.746-.815-2.451.513-.48.81-1.156.81-1.875a2.556 2.556 0 00-2.091-2.523 2.565 2.565 0 00-1.885-2.413 2.961 2.961 0 00-2.849-2.158c-.657 0-1.266.216-1.755.58.273-.647.647-1.194 1.098-1.554 2.182.763 4.115 2.015 5.597 3.655a.371.371 0 00.552-.494C18.725 2.13 15.563.498 12.048.004a.389.389 0 00-.106 0c-3.29.465-6.307 1.942-8.494 4.158C1.223 6.416 0 9.299 0 12.277c0 2.978 1.223 5.86 3.448 8.115 2.187 2.216 5.204 3.693 8.5 4.158.018.005.033.005.052.005.02 0 .034 0 .053-.005 3.29-.465 6.307-1.942 8.499-4.158C22.772 18.138 24 15.255 24 12.277c-.01-2.302-.734-4.552-2.11-6.504zm-6.437-2.638c1.065 0 1.981.758 2.178 1.8a.368.368 0 00.297.292 1.824 1.824 0 011.51 1.707 2.547 2.547 0 00-1.553.739.37.37 0 00.259.633.364.364 0 00.259-.11 1.821 1.821 0 011.295-.538c.01 0 .019 0 .024-.005.019.005.033.005.053.005.983.043 1.75.844 1.75 1.828 0 .508-.21.983-.57 1.328A4.014 4.014 0 0018.2 9.735a.366.366 0 00-.369.37c0 .206.163.369.37.369a3.32 3.32 0 012.364.978c.02.02.038.034.058.048a.517.517 0 00.043.062 3.32 3.32 0 01.873 2.255 3.31 3.31 0 01-.672 2.01 3.4 3.4 0 01-1.41 1.083 2.567 2.567 0 00-2.211-1.257c-.686 0-1.333.27-1.818.754a.37.37 0 00.523.522 1.821 1.821 0 011.295-.537 1.826 1.826 0 011.832 1.827c0 .93-.695 1.698-1.597 1.813a2.61 2.61 0 00.149-.863.366.366 0 00-.37-.37.366.366 0 00-.369.37 1.833 1.833 0 01-1.827 1.827 1.835 1.835 0 01-1.832-1.832c0-.508.206-.983.575-1.333a.369.369 0 00.039-.494 2.864 2.864 0 01-.614-1.784c0-.902.407-1.737 1.117-2.293l.01-.01a2.875 2.875 0 011.78-.608.367.367 0 00.368-.37.366.366 0 00-.369-.37c-.714 0-1.39.202-1.98.586a3.444 3.444 0 01-.922-2.34c0-.912.355-1.766.993-2.413 0 0 0-.005.005-.005a3.418 3.418 0 012.437-1.017.366.366 0 00.369-.369.366.366 0 00-.37-.37 4.136 4.136 0 00-2.719 1.008 2.225 2.225 0 01-.715-1.63 2.22 2.22 0 012.216-2.217zM.74 12.277c0-2.787 1.146-5.482 3.232-7.597 1.425-1.444 3.223-2.556 5.223-3.257.451.36.83.902 1.099 1.55a2.96 2.96 0 00-4.605 1.582 2.566 2.566 0 00-1.885 2.413 2.564 2.564 0 00-2.09 2.522c0 .715.297 1.391.81 1.876a4.078 4.078 0 00-.806 2.714c.014.202.192.36.393.346a.37.37 0 00.346-.394c-.005-.072-.005-.143-.005-.216 0-.834.312-1.635.873-2.254a.183.183 0 00.043-.062.415.415 0 00.057-.048 3.32 3.32 0 012.365-.978c.206 0 .37-.163.37-.37a.366.366 0 00-.37-.369 4.05 4.05 0 00-2.767 1.084 1.83 1.83 0 011.18-3.156c.019 0 .033-.005.052-.005.01.005.02.005.024.005.49 0 .95.192 1.295.537.072.072.168.11.26.11a.37.37 0 00.259-.633 2.547 2.547 0 00-1.555-.738 1.828 1.828 0 011.51-1.709.362.362 0 00.297-.292A2.224 2.224 0 018.523 3.14c1.223 0 2.22.998 2.22 2.22 0 .624-.263 1.21-.714 1.632a4.136 4.136 0 00-2.72-1.008.366.366 0 00-.369.37c0 .206.163.369.37.369a3.398 3.398 0 012.44 1.022c.643.647.993 1.506.993 2.412a3.43 3.43 0 01-.93 2.345 3.601 3.601 0 00-1.98-.585.366.366 0 00-.37.37c0 .206.163.369.37.369.651 0 1.265.21 1.779.609l.01.01a2.895 2.895 0 011.117 2.292c0 .652-.211 1.271-.614 1.784a.369.369 0 00.038.494c.37.35.576.825.576 1.334 0 1.007-.82 1.832-1.833 1.832a1.827 1.827 0 01-1.827-1.828.366.366 0 00-.37-.369.366.366 0 00-.368.37c0 .297.052.59.148.863a1.833 1.833 0 01-1.597-1.813 1.826 1.826 0 011.832-1.827c.49 0 .95.191 1.295.537a.37.37 0 00.523-.523 2.573 2.573 0 00-4.029.504 3.376 3.376 0 01-1.75-1.64.375.375 0 00-.494-.174.375.375 0 00-.173.494 4.106 4.106 0 002.13 2 2.574 2.574 0 002.494 3.2c.062 0 .124 0 .186-.005a2.561 2.561 0 003.746.268c-.124 1.195-.398 1.914-.849 2.283-2.254-.676-4.278-1.865-5.851-3.458C1.89 17.76.739 15.063.739 12.277zm11.256 11.535c-.46-.067-.911-.154-1.357-.26.604-.776.858-2.129.858-4.383 0-.595-.21-1.175-.585-1.63.384-.59.585-1.272.585-1.981 0-.989-.393-1.919-1.088-2.6a4.184 4.184 0 001.088-2.81c0-.97-.33-1.89-.935-2.634.59-.556.935-1.338.935-2.158 0-.93-.182-1.851-.522-2.671-.255-.605-.58-1.118-.964-1.516A15.289 15.289 0 0112 .742c.681.1 1.343.24 1.99.427a4.89 4.89 0 00-.964 1.516 7.017 7.017 0 00-.522 2.671c0 .82.345 1.602.935 2.158a4.157 4.157 0 00-.935 2.634c0 1.04.393 2.047 1.088 2.81a3.626 3.626 0 00-1.088 2.6c0 .714.201 1.39.585 1.98a2.582 2.582 0 00-.585 1.631c0 2.25.254 3.602.858 4.384a16.87 16.87 0 01-1.367.259z"/></symbol><symbol viewBox="0 0 32 32" id="pause" xmlns="http://www.w3.org/2000/svg"><rect height="28" rx="1" width="7" x="7" y="2"/><rect height="28" rx="1" width="7" x="18" y="2"/></symbol><symbol viewBox="0 0 24 24" id="phone" xmlns="http://www.w3.org/2000/svg"><g clip-path="url(#asclip0)"><path d="M23.948 18.596c-.068-.205-.5-.506-1.295-.904a39.775 39.775 0 00-.92-.511 85.168 85.168 0 01-1.083-.597 36.067 36.067 0 01-.912-.528 22.128 22.128 0 00-.426-.298 4.786 4.786 0 00-.605-.367 1.117 1.117 0 00-.486-.12c-.227 0-.51.163-.852.487-.34.324-.653.676-.937 1.057-.284.38-.585.732-.903 1.056-.318.324-.58.486-.784.486a1.16 1.16 0 01-.384-.085 3.991 3.991 0 01-.35-.144 6.374 6.374 0 01-.408-.24 15.886 15.886 0 00-.324-.196c-1.557-.863-2.892-1.852-4.006-2.965-1.113-1.114-2.102-2.45-2.966-4.006a9.956 9.956 0 00-.196-.324 6.125 6.125 0 01-.239-.41 3.692 3.692 0 01-.144-.349 1.153 1.153 0 01-.086-.383c0-.205.162-.466.486-.784.324-.318.677-.62 1.057-.903.38-.284.733-.597 1.057-.938.324-.34.486-.625.486-.852 0-.159-.04-.32-.12-.486a4.738 4.738 0 00-.366-.605c-.165-.238-.264-.38-.299-.426-.17-.284-.346-.588-.528-.912-.182-.324-.38-.685-.597-1.082a40.51 40.51 0 00-.51-.92C5.91.55 5.607.119 5.403.05A.955.955 0 005.046 0c-.307 0-.707.057-1.202.17-.494.114-.883.233-1.167.358-.569.239-1.17.932-1.807 2.08C.29 3.676 0 4.733 0 5.778c0 .307.02.605.06.895.04.29.111.616.213.98.103.364.185.634.247.81.063.176.18.49.35.946.17.454.272.732.307.835a15.44 15.44 0 001.414 2.983c.897 1.454 2.122 2.957 3.673 4.508 1.551 1.551 3.054 2.776 4.509 3.674.875.545 1.87 1.016 2.983 1.414.102.034.38.136.835.307.454.17.77.287.946.35.176.062.446.145.809.247.364.102.69.174.98.214.29.039.588.06.895.06 1.045 0 2.102-.29 3.17-.87 1.148-.637 1.841-1.239 2.08-1.807.125-.284.244-.673.358-1.168.114-.494.17-.894.17-1.201a.951.951 0 00-.05-.36z"/></g><defs><clipPath id="asclip0"><path d="M0 0h24v24H0z"/></clipPath></defs></symbol><symbol viewBox="0 0 12 17" id="play" xmlns="http://www.w3.org/2000/svg"><path d="M11.407 9.429l-8.46 6.74c-.808.641-1.998.065-1.998-.967V1.722c0-1.03 1.19-1.607 1.998-.965l8.46 6.74c.614.492.614 1.44 0 1.933z"/></symbol><symbol viewBox="0 0 76 110" id="player" xmlns="http://www.w3.org/2000/svg"><path d="M72.014 61.708l-58.159 46.336c-5.56 4.41-13.74.447-13.74-6.647V8.727c0-7.095 8.18-11.058 13.74-6.648l58.16 46.336c4.218 3.387 4.218 9.906 0 13.293z"/></symbol><symbol viewBox="0 0 46 46" id="product" xmlns="http://www.w3.org/2000/svg"><path d="M44.69 7.164L38.807 1.28A4.324 4.324 0 0035.73 0a4.348 4.348 0 00-3.087 1.279 4.379 4.379 0 00-1.279 3.182 4.375 4.375 0 00-3.18 1.279 4.378 4.378 0 00-1.279 3.181 4.334 4.334 0 00-3.18 1.28 4.378 4.378 0 00-1.28 3.181 4.376 4.376 0 00-3.18 1.279L4.713 29.218.316 33.616a.991.991 0 00-.27.437c0 .02-.01.031-.01.052a.97.97 0 00.061.686c.021.052.052.094.073.146.135.197.333.353.582.426l3.566 1.019 1.018 3.567c.094.343.364.613.718.717l3.565 1.019 1.019 3.566c.072.25.228.448.436.583a.56.56 0 00.135.072 1.016 1.016 0 00.718.052.98.98 0 00.467-.28l4.397-4.399 6.31-6.311a1.036 1.036 0 001.466 0l7.515-7.518a1.036 1.036 0 000-1.466l-.094-.093a4.428 4.428 0 00.634-2.36 4.376 4.376 0 003.18-1.28 4.379 4.379 0 001.28-3.181 4.335 4.335 0 003.18-1.28 4.379 4.379 0 001.279-3.181 4.376 4.376 0 003.18-1.279A4.351 4.351 0 0046 10.242c-.031-1.154-.478-2.256-1.31-3.078zm-32.556 35.8l-.686-2.423a1.039 1.039 0 00-.717-.717l-3.565-1.009-1.019-3.566a1.038 1.038 0 00-.717-.718l-2.422-.686 2.422-2.423 9.116 9.12-2.412 2.422zM24.421 32.15l-2.443-11.302a1.05 1.05 0 00-1.237-.801 1.05 1.05 0 00-.8 1.237l2.463 11.407-6.382 6.384-9.116-9.119 13.087-13.09 9.854 9.856-5.426 5.428zm18.804-20.286a2.261 2.261 0 01-2.63.426 1.028 1.028 0 00-1.196.198c-.311.322-.395.8-.197 1.196a2.29 2.29 0 01-.426 2.63 2.275 2.275 0 01-2.63.427 1.028 1.028 0 00-1.196.197c-.311.312-.395.8-.197 1.196a2.29 2.29 0 01-.426 2.63 2.262 2.262 0 01-2.63.427 1.028 1.028 0 00-1.195.197 1.047 1.047 0 00-.198 1.196 2.27 2.27 0 01.125 1.726l-8.763-8.765a2.317 2.317 0 011.726.124c.395.198.883.125 1.195-.197.312-.322.395-.8.198-1.196a2.29 2.29 0 01.426-2.63 2.275 2.275 0 012.63-.427c.395.198.883.125 1.195-.197.312-.312.395-.8.197-1.196a2.29 2.29 0 01.427-2.63 2.261 2.261 0 012.63-.427c.395.198.883.125 1.195-.198.312-.312.395-.8.197-1.195a2.29 2.29 0 01.427-2.631 2.262 2.262 0 011.621-.665c.613 0 1.185.239 1.622.665l5.873 5.885c.436.437.665 1.009.665 1.622 0 .603-.24 1.186-.665 1.612z"/></symbol><symbol viewBox="0 0 52 52" id="roulette" xmlns="http://www.w3.org/2000/svg"><path d="M15.94 11.627c0 .616 1.232 1.232 3.08 1.232 1.85 0 3.082-.616 3.082-1.232 0-.617-1.233-1.233-3.081-1.233-1.54 0-3.081.308-3.081 1.233z"/><path d="M49.214 23.026a5.523 5.523 0 00-5.546-5.546H15.324s-7.395.308-10.784-5.545C4.85 7.62 8.238 4.54 12.55 4.54h12.325c4.62 0 8.01 3.698 8.01 8.01v1.541h1.54V12.86c0-5.547-4.313-9.86-9.859-9.86H12.86C7.313 3 3 7.313 3 12.859V27.34c0 5.545 4.313 9.858 9.859 9.858h2.156v-1.54h-2.464c-4.622 0-8.01-3.697-8.01-8.01V14.706c.924 1.233 4.005 4.314 10.474 4.314h28.653c2.157 0 3.697 1.54 3.697 3.697v2.465c0 2.156-1.54 3.697-3.697 3.697H23.95a5.523 5.523 0 00-5.545 5.545v8.319a5.523 5.523 0 005.545 5.545h19.718a5.523 5.523 0 005.546-5.545V23.025zM47.365 43.36c0 2.157-1.54 3.697-3.697 3.697H23.642c-2.157 0-3.697-1.54-3.697-3.697v-8.935c0-2.156 1.54-3.697 3.697-3.697h5.854v5.238h1.54v-5.238h9.859v5.238h1.54v-5.238h1.233c1.54 0 3.08-.616 4.005-1.54V43.36h-.308z"/></symbol><symbol viewBox="0 0 32 32" id="structure-almond" xmlns="http://www.w3.org/2000/svg"><path d="M15.268 23.194a.463.463 0 00-.581.314 5.011 5.011 0 01-4.772 3.553 4.987 4.987 0 01-4.978-4.978c0-3.68 1.294-7.265 3.647-10.096l.792-.951a.695.695 0 01.535-.254c.206 0 .403.094.534.254l.792.951a15.814 15.814 0 013.44 7.537.468.468 0 00.924-.155 16.78 16.78 0 00-3.642-7.982l-.788-.956a1.625 1.625 0 00-1.256-.59c-.487 0-.947.215-1.256.59l-.792.951A16.775 16.775 0 004 22.083a5.921 5.921 0 005.915 5.915 5.868 5.868 0 003.567-1.195 5.974 5.974 0 002.105-3.023.473.473 0 00-.319-.586z"/><path d="M9.69 15.854a.467.467 0 00-.192.633 11.932 11.932 0 011.373 4.687.47.47 0 00.47.431h.037a.468.468 0 00.43-.501 12.697 12.697 0 00-1.48-5.058.47.47 0 00-.638-.192zm.225 8.16a.47.47 0 00.469-.468.47.47 0 00-.469-.47 1 1 0 01-.998-.998c0-.585.042-1.176.131-1.752a.468.468 0 00-.394-.535.468.468 0 00-.534.394 12.73 12.73 0 00-.14 1.893c0 1.07.867 1.936 1.935 1.936zm0 1.992a3.928 3.928 0 003.923-3.923.47.47 0 00-.468-.468.47.47 0 00-.469.468 2.99 2.99 0 01-2.986 2.986.47.47 0 00-.468.469c0 .258.21.468.468.468zm3.056-6.801a.469.469 0 00.46-.581 14.83 14.83 0 00-1.514-3.83.468.468 0 00-.816.46 13.922 13.922 0 011.42 3.586.46.46 0 00.45.365zM8.11 15.404a.47.47 0 00-.627.216 14.856 14.856 0 00-1.49 6.458c0 .258.21.47.468.47a.47.47 0 00.468-.47c0-2.08.483-4.171 1.397-6.046a.474.474 0 00-.215-.628zm19.884 1.856l-.113-1.233A16.778 16.778 0 0023.053 5.73a5.918 5.918 0 00-8.362 0 5.918 5.918 0 000 8.361 16.784 16.784 0 0010.298 4.833l1.233.113c.052.004.103.004.15.004a1.626 1.626 0 001.622-1.781zm-1.14.642a.703.703 0 01-.557.202l-1.233-.113a15.822 15.822 0 01-9.716-4.56 4.985 4.985 0 010-7.04 4.938 4.938 0 013.52-1.458c1.331 0 2.578.515 3.52 1.457a15.833 15.833 0 014.56 9.717l.113 1.233a.71.71 0 01-.206.562z"/><path d="M18.863 8.917c.267 0 .516.103.703.29.413.413.802.863 1.149 1.332a.469.469 0 10.754-.558 12.603 12.603 0 00-1.237-1.44 1.918 1.918 0 00-1.369-.566c-.515 0-1.003.201-1.369.567a.467.467 0 10.661.66c.192-.182.446-.285.708-.285zm4.251 4.659a12.021 12.021 0 01-4.288-2.344.468.468 0 10-.61.713 12.723 12.723 0 004.627 2.53.47.47 0 00.586-.314.476.476 0 00-.315-.585zm-1.476-6.44a.467.467 0 10-.661.66 13.932 13.932 0 013.29 5.264.47.47 0 00.6.286.47.47 0 00.291-.595 14.884 14.884 0 00-3.52-5.615zm1.219 8.437a13.723 13.723 0 01-3.54-1.533.465.465 0 00-.641.155.465.465 0 00.154.642 14.69 14.69 0 003.778 1.636.465.465 0 00.576-.323.47.47 0 00-.327-.577zm-6.103-8.437a.467.467 0 00-.661 0 3.932 3.932 0 000 5.55.46.46 0 00.333.135.467.467 0 00.333-.797 2.993 2.993 0 010-4.223.477.477 0 00-.005-.665zm-1.402 13.94a.464.464 0 00-.469.469.464.464 0 00.469.469.464.464 0 00.469-.469.484.484 0 00-.136-.334.472.472 0 00-.333-.135z"/></symbol><symbol viewBox="0 0 32 32" id="structure-beans" xmlns="http://www.w3.org/2000/svg"><path d="M15.367 10.056a.477.477 0 00-.67-.075 1.374 1.374 0 01-1.725 0 .477.477 0 10-.595.746c.412.332.932.51 1.462.51.53 0 1.05-.182 1.463-.51a.484.484 0 00.065-.67z"/><path d="M27.653 16.802a5.68 5.68 0 00-1.926-2.616 5.38 5.38 0 00-2.096-.947 5.762 5.762 0 00-1.284-4.252C21.287 7.708 19.764 7 18.057 7h-.276c-1.195 0-2.353.422-3.351 1.223a.965.965 0 01-.6.211.965.965 0 01-.6-.21C12.236 7.421 11.078 7 9.883 7h-.277c-1.233 0-2.386.375-3.333 1.078a5.592 5.592 0 00-1.926 2.616 5.582 5.582 0 00-.192 3.225c.272 1.143.914 2.16 1.856 2.948.717.6 1.505 1.116 2.339 1.533a5.584 5.584 0 00.14 1.627c.272 1.143.915 2.16 1.857 2.948a12.225 12.225 0 0015.647 0c.942-.788 1.584-1.805 1.856-2.948a5.583 5.583 0 00-.197-3.225zm-19.153.6a11.218 11.218 0 01-1.88-1.27c-1.828-1.524-1.907-3.643-1.378-5.115.535-1.481 1.964-3.06 4.36-3.06h.276c.975 0 1.927.35 2.752 1.012.337.272.764.422 1.195.422.431 0 .858-.15 1.195-.422.825-.666 1.777-1.013 2.752-1.013h.276c1.416 0 2.677.581 3.554 1.64a4.796 4.796 0 011.073 3.517 5.815 5.815 0 00-.29-.01h-.277c-1.195 0-2.353.422-3.352 1.224a.965.965 0 01-1.2 0c-.998-.802-2.156-1.224-3.351-1.224h-.277a5.554 5.554 0 00-3.333 1.078 5.591 5.591 0 00-1.926 2.616 9.566 9.566 0 00-.169.605zm16.88 4.837a11.276 11.276 0 01-7.21 2.611c-2.63 0-5.198-.928-7.214-2.61-1.828-1.524-1.908-3.643-1.378-5.115.535-1.481 1.964-3.06 4.36-3.06h.276c.975 0 1.927.35 2.752 1.012a1.92 1.92 0 001.195.421c.431 0 .858-.15 1.195-.421.825-.666 1.777-1.013 2.752-1.013h.276c2.396 0 3.825 1.584 4.36 3.061.544 1.472.464 3.59-1.364 5.114z"/><path d="M19.623 16.098a.477.477 0 00-.67-.075 1.373 1.373 0 01-1.725 0 .477.477 0 10-.595.746c.412.333.933.51 1.462.51.53 0 1.05-.182 1.463-.51a.476.476 0 00.065-.67zm3.694 6.347a.476.476 0 00-.642-.206 9.793 9.793 0 01-4.505 1.083.48.48 0 00-.478.478.48.48 0 00.478.478c1.74 0 3.403-.398 4.94-1.19a.479.479 0 00.207-.643zm1.852-1.35a.481.481 0 00-.675-.06c-.113.093-.225.182-.338.271a.478.478 0 10.582.76c.126-.094.248-.197.37-.296a.482.482 0 00.06-.675z"/></symbol><symbol viewBox="0 0 32 32" id="structure-grape" xmlns="http://www.w3.org/2000/svg"><path d="M20.443 16.714c2.16-1.489 1.653-5.2-.935-5.913-.183-.052-.91-.024-1-.108-.146-.141-.235-.813-.348-1.02a3.256 3.256 0 00-1.446-1.366c-1.268-.61-2.8-.348-3.743.709-.912-1.23-2.499-1.606-3.87-.944A3.412 3.412 0 007.626 9.42c-.174.3-.3.625-.371.967-.08.41.023.785-.01 1.184-.023.277.043.22-.258.334a3.338 3.338 0 00-.493.239 3.204 3.204 0 00-.892.813 3.487 3.487 0 00-.681 2.179 3.284 3.284 0 00.47 1.597c.046.075.154.188.178.263.07.216.07.042-.033.249-.197.385-.56.662-.733 1.085a3.416 3.416 0 00.005 2.62c.08.193.211.357.296.545.07.155.127.141.089.272-.019.062-.282.254-.32.296A3.431 3.431 0 004 24.374c.014 1.818 1.508 3.34 3.349 3.246a3.256 3.256 0 002.193-1.015c.085-.09.315-.526.413-.559.08-.023.489.188.573.212.432.112.888.126 1.33.047a3.266 3.266 0 002.061-1.292c.137-.183.212-.413.343-.592.033-.042.057-.22.099-.244.019-.01.305.085.366.094.48.094.982.07 1.456-.061a3.32 3.32 0 001.343-.756c.104-.099.418-.606.531-.649.127-.042.554.146.705.165.995.108 2.005-.287 2.69-1.01 1.48-1.578.968-4.32-1.009-5.246.127-.09.254-.174.38-.263-.126.09-.253.174-.38.263zm-2.64-3.363a2.32 2.32 0 00.315-.456c.028-.046.052-.093.075-.145.113-.23.207-.465.263-.714.08-.343.01-.39.348-.423.324-.028.714.132.982.292.54.324.892.887 1.033 1.493.136.592.075 1.24-.207 1.78a2.12 2.12 0 01-.63.737c-.088.066-.873.442-.873.357v-.047a2.47 2.47 0 00-.01-.333c0-.019-.004-.033-.004-.052v-.01a3.31 3.31 0 00-1.38-2.39c.032-.023.06-.056.088-.089.015-.014-.028.033 0 0 .118-.136-.028.033 0 0zm-.065 1.395a2.575 2.575 0 01.3.554c.01.024.014.043.024.066.005.01.005.019.01.028l.013.042c.052.15.075.31.099.465 0 .024.005.043.005.066 0 .01 0 .024.004.033 0 .023.005.042.005.066v.014c.01.202.005.441-.061.634-.005.019-.005.038-.01.052-.333.807-.85 1.526-1.756 1.719-.564.122-1.245.018-1.714-.334-.038-.023-.075-.052-.108-.075-.963-.733-1.142-2.053-.569-3.086.592-1.07 1.672-1.385 2.79-1.01.024.01.047.024.07.033.024.01.048.024.071.033.005 0 .01.005.014.005.066.033.132.07.193.113.056.037.113.075.169.117.052.038.099.08.146.127.009.01.018.014.023.023.066.052.258.287.282.315.005.01-.028-.038 0 0zm-4.922.507a3.83 3.83 0 00-.07.315c-.668.019-1.255-.277-1.715-.742a2.404 2.404 0 01-.573-1.118c-.437-1.146.625-2.536 1.69-2.804a3.36 3.36 0 001.382 3.048 3.359 3.359 0 00-.714 1.306l.056-.202-.056.197c-.029.104.136-.483 0 0zm.68 3.09c-.53.376-1.01.959-1.192 1.593a2.212 2.212 0 01-.226-.066 2.252 2.252 0 00-.662-.09c-.09 0-.178 0-.268.005a.96.96 0 01-.206.02.924.924 0 00-.165.023h-.01a.189.189 0 01-.07.014c-.765-.418-1.272-1.282-1.23-2.16v-.005c0-.024 0-.047.005-.07v-.01c0-.019.004-.038.004-.052v-.005c.005-.065.01-.154.028-.22.015-.09.038-.179.062-.263 0-.005 0-.005.004-.01 0-.004.005-.009.005-.014.047-.16.117-.3.188-.45.037-.066.075-.132.122-.198.122-.188.277-.357.456-.498a.638.638 0 01.169-.127.397.397 0 01.056-.037.18.18 0 01.042-.024 3.137 3.137 0 002.085.794h.015c.014.179.033.437.117.601.01.033.019.066.033.104 0 .004.005.004.005.01.009.032.023.065.033.102.131.376.338.728.6 1.034zm-.159-8.247c0-.004.005-.01.005-.014v-.005c1.117-2.047 4.26-1.131 4.288 1.137v.019c0 .545-.188 1.07-.517 1.498l-.01.01a2.32 2.32 0 01-.253.272c-.62-.202-1.475-.24-2.076.061-.09.033-.432.254-.507.249-.122-.005-.31-.207-.395-.277a2.315 2.315 0 01-.629-.855c0-.005-.005-.01-.005-.01-.281-.666-.216-1.521.08-2.066-.023.056-.019.047.019-.019 0-.004-.07.132 0 0zM10.411 8.64c.84 0 1.61.48 2.01 1.23-.005.01-.005.015-.01.024l-.013.033c-1.64.155-2.894 1.62-2.917 3.246a1.994 1.994 0 01-.526-.334c-.019-.014-.033-.028-.052-.042-1.69-1.273-.498-4.157 1.508-4.157zM7.64 12.68c.005.004.005.009.01.014.056.098.14.253.225.338l.037.051.029.033c.014.014.023.033.037.047.249.3.578.587.935.761.188.099.568.146.714.277.15.132.249.606.366.794a2.35 2.35 0 00-.446.362c-.01.004-.014.014-.024.018l-.037.038a3.261 3.261 0 00-.545.737c0 .005-.005.01-.005.01a.171.171 0 00-.07.136c-.01.023-.024.047-.033.07v.005a3.09 3.09 0 00-.09.22c-.023.062-.051.128-.06.193l-.015.057-.014.056c0 .005-.004.014-.004.019a.136.136 0 00-.01.042v.01c-.023.103-.033.21-.06.314v.029l-.076.014a2.193 2.193 0 01-.554.023h-.005c-.023 0-.042-.005-.066-.005h-.014a2.29 2.29 0 01-.798-.253.863.863 0 00-.127-.07c-.023-.015-.047-.029-.07-.048-.02-.014-.038-.023-.052-.037h-.005l-.136-.108c-1.437-1.198-.892-3.744.963-4.148-.01-.014-.404.09-.46.104.155-.042.31-.07.46-.103.005.004-1.038.225 0 0zm-1.278 5.072c.16.108.475.338.672.338a3.1 3.1 0 00.897.188c.15.01.329.023.48-.01.112-.07.168-.075.168-.018.075.483.259 1.07.587 1.446.146.202.31.385.498.55l.005.005c-.47.29-1.362 1.06-1.362 1.68a2.04 2.04 0 01-.338.062c-.01 0-.02 0-.029.005-2.254.206-3.31-2.884-1.578-4.246.005.005-.21.225-.244.202 0 0 .315-.254.244-.202.08.052-.563.446 0 0zm.836 8.966c-1.188 0-2.099-.944-2.24-2.095a2.429 2.429 0 01.324-1.564c.118-.193.334-.535.554-.61.259-.09.738.248 1.043.352a2.9 2.9 0 001.062.117l.178-.014c-.024.4.028.831.164 1.207.052.165.113.343.202.489a2.7 2.7 0 00.47.685c.235.273.263.259.028.56a2.25 2.25 0 01-1.785.874zm6.388-3.25c0 .004 0 .004 0 0-.291 1.78-2.48 2.588-3.8 1.329-.591-.568-.939-1.404-.723-2.217.207-.765.836-1.677 1.695-1.803.428-.113 1.292-.15 1.64.197h.004c.883.483 1.339 1.583 1.189 2.46.004-.041.004-.032-.005.034 0 .004.019-.127 0 0zm1.747-.052a2.22 2.22 0 01-.798-.15 2.323 2.323 0 000-.4 4.073 4.073 0 00-.052-.408.687.687 0 00-.019-.085v-.004c-.005-.024-.01-.052-.019-.075v-.005c-.117-.432-.352-1.17-.751-1.437a.722.722 0 00-.056-.061l-.029-.033a3.1 3.1 0 00-.465-.4c0-.004.005-.009.005-.014l.014-.042c.043-.14.108-.291.183-.422.104-.198.24-.381.4-.536l.037-.038a.215.215 0 01.038-.032c.01-.01.018-.02.033-.029a.075.075 0 01.018-.014c.01-.01.024-.019.033-.028a1.8 1.8 0 01.334-.23c.507.32 1.08.48 1.681.48v.018c-.028.47.038.94.197 1.38.09.245.334.893.592 1.024a.05.05 0 00.024.024 2.942 2.942 0 00.343.338c.202.07.216.165.051.287-.07.174-.329.347-.474.455-.39.282-.846.437-1.32.437zm3.78-1.338c-1.427 0-2.474-1.395-2.258-2.767.418-.131.948-.376 1.226-.728.032-.033.065-.06.094-.094l.014-.014a1.97 1.97 0 00.122-.136c.014-.014.023-.028.037-.042a3.113 3.113 0 00.53-.897l.015-.038c1.31-.127 2.456.982 2.503 2.269.047 1.263-.981 2.447-2.282 2.447zm5.332-11.328a.461.461 0 11.001-.923.461.461 0 01-.001.922z"/><path d="M27.803 11.839c-.414-1.7-1.649-3.152-3.678-4.321.291-.442 1.8-3.33.728-3.509-.653-.108-.648 1.029-.77 1.428-.207.681-.512 1.334-.953 1.898-.855 1.122-2.278 1.756-3.673 1.756-.395-.023-.634.475-.371.77.183.202.493.16.742.146a5.7 5.7 0 002.578-.812c-.887 3.297 1.297 5.762 3.899 7.43.004.004.009.004.014.01.075.046.183.07.272.06.005 0 .014 0 .023-.005.02 0 .033-.004.052-.009.028-.005.056-.019.085-.028.004 0 .004-.005.01-.005.004 0 .004-.005.009-.005a.433.433 0 00.164-.14s.005-.005.005-.01c.051-.084 1.47-2.16.864-4.654-.414-1.7.606 2.494 0 0zm-1.151 3.165a85.329 85.329 0 00-.76-2.348c-.128-.376-.287-1.292-.78-1.348-.804-.09-.367.869-.235 1.235.3.836.563 1.691.831 2.537-1.038-.804-2.029-1.813-2.423-3.096-.386-1.24-.076-2.489.39-3.658 2.442 1.409 4.09 3.813 2.977 6.678-.385-1.226 0 0 0 0z"/></symbol><symbol viewBox="0 0 32 20" id="structure-milk" xmlns="http://www.w3.org/2000/svg"><path d="M8.481 5.45a.469.469 0 100-.938.469.469 0 000 .938zm3.007 0a.469.469 0 100-.937.469.469 0 000 .937zM9.981 7.419a.469.469 0 100-.938.469.469 0 000 .938zm3.007 0a.469.469 0 100-.938.469.469 0 000 .938zm-9.05 0a.469.469 0 100-.938.469.469 0 000 .938zm3.037 0a.469.469 0 100-.938.469.469 0 000 .938zm3.006-3.944a.469.469 0 100-.938.469.469 0 000 .938zm-3.006 0a.469.469 0 100-.938.469.469 0 000 .938zM5.506 5.45a.469.469 0 100-.938.469.469 0 000 .938z"/><path d="M30.525 8.019h-4.469a.468.468 0 100 .937h4.469a.53.53 0 01.531.532v.156a.53.53 0 01-.444.525L16.42 12.53a.47.47 0 00-.394.463V15.5a3.542 3.542 0 01-3.537 3.538h-8.02A3.542 3.542 0 01.932 15.5V8.956h22.813a.468.468 0 100-.937h-6.938a21.93 21.93 0 00-2.062-3.806C12.856 1.456 10.688 0 8.48 0 6.275 0 4.1 1.456 2.206 4.213.813 6.237.056 8.238.025 8.319v.006c-.006.013-.006.025-.013.038 0 .006 0 .006-.006.012C0 8.387 0 8.4 0 8.419V15.5a4.478 4.478 0 004.475 4.475h8.019a4.478 4.478 0 004.475-4.475v-2.106l13.8-2.3A1.47 1.47 0 0032 9.644v-.156a1.48 1.48 0 00-1.475-1.47zM8.481.937c3.832 0 6.488 5.232 7.313 7.075H1.169C1.988 6.17 4.644.937 8.48.937z"/></symbol><symbol viewBox="0 0 32 32" id="structure-nuts" xmlns="http://www.w3.org/2000/svg"><path d="M25.89 9.773a.37.37 0 00-.605.422c1.286 1.828 1.967 3.928 1.967 6.082 0 2.787-1.146 5.482-3.233 7.597-1.573 1.592-3.597 2.782-5.851 3.458-.451-.364-.724-1.089-.85-2.283a2.561 2.561 0 003.746-.269c.063.005.125.005.188.005a2.574 2.574 0 002.494-3.199 4.124 4.124 0 001.717-1.323c.537-.71.82-1.56.82-2.451 0-.888-.288-1.746-.815-2.451.513-.48.81-1.156.81-1.875a2.556 2.556 0 00-2.091-2.523 2.565 2.565 0 00-1.885-2.413 2.961 2.961 0 00-2.849-2.158c-.657 0-1.266.216-1.755.58.273-.647.647-1.194 1.098-1.554 2.182.763 4.115 2.015 5.597 3.655a.371.371 0 00.552-.494c-2.22-2.45-5.381-4.081-8.897-4.575a.389.389 0 00-.106 0c-3.29.465-6.307 1.942-8.494 4.158C5.223 10.416 4 13.299 4 16.277c0 2.978 1.223 5.86 3.448 8.115 2.187 2.216 5.204 3.693 8.5 4.158.018.005.033.005.052.005.02 0 .034 0 .053-.005 3.29-.465 6.307-1.942 8.499-4.158C26.772 22.138 28 19.255 28 16.277c-.01-2.302-.734-4.552-2.11-6.504zm-6.437-2.638c1.065 0 1.981.758 2.178 1.799a.368.368 0 00.297.293 1.824 1.824 0 011.51 1.707 2.546 2.546 0 00-1.553.739.37.37 0 00.259.633.364.364 0 00.259-.11 1.821 1.821 0 011.295-.538c.01 0 .019 0 .024-.005.019.005.033.005.053.005.983.043 1.75.844 1.75 1.828 0 .508-.21.983-.57 1.328a4.014 4.014 0 00-2.754-1.079.366.366 0 00-.369.37c0 .206.163.369.37.369a3.32 3.32 0 012.364.978c.02.02.038.034.058.048a.517.517 0 00.043.062 3.32 3.32 0 01.873 2.255 3.31 3.31 0 01-.672 2.01 3.4 3.4 0 01-1.41 1.083 2.567 2.567 0 00-2.211-1.256c-.686 0-1.333.268-1.818.753a.37.37 0 00.523.522 1.821 1.821 0 011.295-.537 1.826 1.826 0 011.832 1.827c0 .93-.695 1.698-1.597 1.813a2.61 2.61 0 00.149-.863.366.366 0 00-.37-.37.366.366 0 00-.369.37 1.833 1.833 0 01-1.827 1.827 1.835 1.835 0 01-1.832-1.832c0-.508.206-.983.575-1.333a.369.369 0 00.038-.494 2.864 2.864 0 01-.613-1.784c0-.902.407-1.736 1.117-2.293l.01-.01a2.875 2.875 0 011.78-.608.367.367 0 00.368-.37.366.366 0 00-.369-.37c-.715 0-1.39.202-1.98.586a3.444 3.444 0 01-.922-2.34c0-.912.355-1.765.993-2.413 0 0 0-.005.005-.005a3.418 3.418 0 012.437-1.017.366.366 0 00.369-.369.366.366 0 00-.37-.37 4.136 4.136 0 00-2.719 1.008 2.225 2.225 0 01-.715-1.63 2.22 2.22 0 012.216-2.217zM4.74 16.277c0-2.787 1.146-5.482 3.232-7.597 1.425-1.444 3.223-2.556 5.223-3.257.451.36.83.902 1.099 1.55a2.96 2.96 0 00-4.605 1.582 2.566 2.566 0 00-1.885 2.413 2.564 2.564 0 00-2.09 2.522c0 .715.297 1.391.81 1.876a4.078 4.078 0 00-.806 2.714c.014.202.192.36.393.346a.37.37 0 00.346-.394c-.005-.072-.005-.143-.005-.215 0-.835.312-1.636.873-2.255a.183.183 0 00.043-.062.415.415 0 00.057-.048 3.32 3.32 0 012.365-.978c.206 0 .37-.163.37-.37a.366.366 0 00-.37-.369 4.05 4.05 0 00-2.767 1.084 1.83 1.83 0 011.18-3.156c.019 0 .033-.005.052-.005.01.005.02.005.024.005.49 0 .95.192 1.295.537.072.072.168.11.26.11a.37.37 0 00.259-.633 2.547 2.547 0 00-1.555-.738 1.828 1.828 0 011.511-1.708.362.362 0 00.297-.292 2.224 2.224 0 012.178-1.799c1.223 0 2.22.998 2.22 2.22 0 .624-.263 1.21-.714 1.632a4.136 4.136 0 00-2.72-1.008.366.366 0 00-.369.37c0 .206.163.369.37.369a3.398 3.398 0 012.44 1.022c.643.647.993 1.506.993 2.412a3.43 3.43 0 01-.93 2.345 3.602 3.602 0 00-1.98-.585.366.366 0 00-.37.37c0 .206.163.369.37.369.651 0 1.265.21 1.778.609l.01.01a2.895 2.895 0 011.118 2.292c0 .652-.211 1.271-.614 1.784a.369.369 0 00.038.494c.37.35.576.825.576 1.334 0 1.007-.82 1.832-1.833 1.832a1.827 1.827 0 01-1.827-1.828.366.366 0 00-.37-.369.366.366 0 00-.368.37c0 .297.052.59.148.863a1.833 1.833 0 01-1.597-1.813 1.826 1.826 0 011.832-1.827c.49 0 .95.191 1.295.537a.37.37 0 00.523-.523 2.573 2.573 0 00-4.029.504 3.376 3.376 0 01-1.75-1.64.375.375 0 00-.494-.174.375.375 0 00-.173.494 4.106 4.106 0 002.13 2 2.574 2.574 0 002.494 3.2c.062 0 .124 0 .187-.005a2.561 2.561 0 003.745.268c-.124 1.195-.398 1.914-.849 2.283-2.254-.676-4.278-1.865-5.851-3.458-2.062-2.134-3.213-4.83-3.213-7.616zm11.256 11.535c-.46-.067-.911-.154-1.357-.26.604-.776.858-2.129.858-4.383 0-.595-.21-1.175-.585-1.63.384-.59.585-1.272.585-1.981 0-.988-.393-1.919-1.088-2.6a4.184 4.184 0 001.088-2.81c0-.97-.33-1.89-.935-2.634.59-.556.935-1.338.935-2.158 0-.93-.182-1.851-.522-2.671-.255-.605-.58-1.118-.964-1.516A15.288 15.288 0 0116 4.742c.681.1 1.343.24 1.99.427a4.89 4.89 0 00-.964 1.516 7.017 7.017 0 00-.522 2.671c0 .82.345 1.602.935 2.158a4.157 4.157 0 00-.935 2.634c0 1.04.393 2.047 1.088 2.81a3.626 3.626 0 00-1.088 2.6c0 .714.201 1.39.585 1.98a2.582 2.582 0 00-.585 1.631c0 2.25.254 3.602.858 4.384-.455.105-.906.192-1.367.259z"/></symbol><symbol viewBox="0 0 32 32" id="structure-oat" xmlns="http://www.w3.org/2000/svg"><path d="M19.47 18.321c.46.732 1.187 1.13 1.965 1.13a2.46 2.46 0 001.093-.262l1.397-.493-.933-1.153a2.338 2.338 0 00-1.613-1.093 2.39 2.39 0 001.388-.567l1.238-.811-1.182-.896a2.46 2.46 0 00-.891-.553c.267-.202.497-.47.675-.793l.858-1.21-1.425-.403a2.338 2.338 0 00-1.637-.09 2.4 2.4 0 00.793-1.19l.595-1.356-1.477-.107c-1.242-.24-2.354.426-2.72 1.636l-.478 1.083a8.254 8.254 0 00-.961-.937l1.144-.61c1.182-.455 1.763-1.613 1.43-2.832l-.215-1.468-1.309.694c-1.182.455-1.763 1.613-1.43 2.837l.178 1.21a7.995 7.995 0 00-1.266-.797l.558-1.018c.74-1.027.596-2.317-.356-3.156L13.909 4l-.713 1.299c-.741 1.027-.596 2.316.356 3.156l.47.525c-.104-.042-.203-.084-.31-.122a.42.42 0 00-.479.16l-.769-.882c-.713-1.046-1.97-1.355-3.085-.755L8 7.925l.97 1.116c.47.69 1.173 1.06 1.923 1.06.127 0 .253-.014.375-.038-.595.23-1.083.708-1.34 1.384l-.685 1.317 1.467.202c.22.056.441.084.657.084.38 0 .74-.093 1.06-.262-.117.347-.16.731-.103 1.135l.037 1.482 1.383-.53c.113-.029.22-.07.324-.113a2.62 2.62 0 00-.084.352l-.399 1.425 1.477-.098c.019 0 .038-.005.056 0-.234.21-.44.469-.59.783l-.798 1.247 1.445.333c.168.061.337.099.506.122a2.33 2.33 0 00-1.641.9l-1.055 1.041 1.336.643c.418.267.868.399 1.304.399.684 0 1.346-.315 1.829-.92l.056-.056c-1.318 3.184-4.155 5.52-7.892 6.232a.421.421 0 00.075.835c.028 0 .051-.005.08-.01 3.803-.726 6.738-3.01 8.253-6.147l-.056 1.243c-.211 1.247.487 2.34 1.711 2.677l1.374.558.07-1.482c.212-1.247-.487-2.34-1.711-2.677l-1.28-.525c.23-.507.417-1.032.576-1.576l.179.628c.197 1.248 1.205 2.068 2.47 1.998l1.478.098-.403-1.425c-.197-1.252-1.215-2.068-2.472-1.998l-1.06-.07c.1-.464.174-.938.216-1.421l.352.45zM17.53 6.81l.328-.169.047.31.01.051c.229.811-.146 1.557-.934 1.852l-.328.17-.047-.31-.01-.052c-.234-.811.141-1.557.934-1.852zm-3.64-1.036l.184-.324.21.234.038.038c.638.553.732 1.379.23 2.059l-.183.323-.206-.234-.038-.038c-.638-.548-.731-1.378-.234-2.058zm4.925 17.444l.018-.366.291.117.052.02c.816.215 1.266.913 1.116 1.748l-.019.366-.29-.117-.052-.019c-.816-.216-1.267-.92-1.116-1.75zm1.153-2.997h.028c.84-.06 1.491.47 1.613 1.304l.099.356-.342-.023h-.028c-.835.06-1.492-.469-1.614-1.304l-.098-.356.342.023zm-.802-3.273c0-.122.01-.239.01-.36a8.723 8.723 0 00-.108-1.22l.53.403c.37.361.806.577 1.261.652a2.456 2.456 0 00-.914.253l-.779.272zm-.59-3.362l1.036.295c.065.029.131.052.192.07-.052.038-.103.066-.155.109l-.76.497a6.88 6.88 0 00-.314-.971zm3.713 4.422l.23.29-.295.104-.052.023c-.75.38-1.552.155-1.993-.562l-.23-.291.296-.103.051-.024c.75-.384 1.553-.16 1.993.563zm.258-2.992l-.262.174-.043.033c-.642.553-1.472.52-2.072-.07l-.29-.226.262-.173.042-.033c.638-.554 1.472-.52 2.073.07l.29.225zm-.816-3.02l.352.104-.183.257-.028.047c-.394.746-1.182 1.023-1.955.69l-.352-.104.183-.258.028-.046c.399-.746 1.182-1.023 1.955-.69zm-3.352-1.58l.018-.052c.235-.81.947-1.242 1.777-1.069l.366.028-.126.286-.02.052c-.234.811-.951 1.238-1.776 1.07l-.366-.029.127-.286zm.098 1.149a2.366 2.366 0 001.21-.056c-.253.197-.474.45-.643.76l-.647.909a8.29 8.29 0 00-1.031-1.693l1.111.08zm-1.083 1.486l-.938.061a2.465 2.465 0 00-1.008.16c.089-.32.122-.666.07-1.032l-.037-1.458a7.366 7.366 0 011.913 2.27zM9.66 8.553l-.24-.281.292-.113.051-.023c.736-.408 1.548-.211 2.012.492l.24.282-.292.112-.051.024c-.737.408-1.548.206-2.012-.493zm2.396 1.243l1.112-.436a.416.416 0 00.262.295 7.003 7.003 0 012.03 1.112l-1.364.52c-.206.052-.39.131-.563.22l.685-1.317-1.468-.202a2.422 2.422 0 00-.998-.051c.103-.043.206-.085.304-.141zm-1.144 2.35l-.366-.057.146-.277.023-.051c.286-.793 1.027-1.177 1.843-.952l.366.056-.146.277-.023.051c-.29.793-1.032 1.178-1.843.952zm2.617 1.917l-.347.127-.01-.314-.004-.056c-.132-.835.333-1.525 1.153-1.722l.347-.126.01.314.004.056c.132.835-.333 1.524-1.153 1.721zm1.538 1.534l-.342.023.084-.3.01-.056c.116-.797.707-1.308 1.49-1.308.038 0 .075 0 .118.004h.028l.342-.023-.084.3-.01.056c-.122.835-.76 1.36-1.608 1.308l-.028-.004zm2.466-1.154l.197-.699c.324.77.52 1.604.577 2.472l-.84-.193a2.594 2.594 0 00-.712-.14 2.32 2.32 0 00.778-1.44zm-2.443 3.48l.17-.263.027-.047c.357-.764 1.13-1.078 1.918-.783l.361.084-.169.263-.028.047c-.356.764-1.13 1.083-1.918.783l-.36-.084zm1.754 2.494l-.037.043c-.516.665-1.342.801-2.045.342l-.328-.164.225-.22.037-.043c.516-.666 1.337-.802 2.045-.342l.328.164-.225.22zm.333-1.106a2.468 2.468 0 00-.957-.361c.802-.066 1.515-.54 1.9-1.346l.192-.3a10.98 10.98 0 01-.366 2.377l-.769-.37z"/></symbol><symbol viewBox="0 0 21 24" id="structure-pumpkin" xmlns="http://www.w3.org/2000/svg"><path d="M20.482 10.145l-.178-.71-.658.536a5.304 5.304 0 00-.596-1.216l-.127-.179-.22-.019a5.056 5.056 0 00-.926.038l.291-.888-.812.197a9.861 9.861 0 00-.742.217v-.005c.103-5.354-2.152-7.73-2.41-7.98-.005-.005-.01-.005-.014-.01-.005-.004-.01-.013-.014-.018-.033-.023-.066-.038-.103-.056-.02-.01-.033-.02-.052-.029A.53.53 0 0013.728 0h-.004c-.357.038-3.603.484-6.89 4.753a12.02 12.02 0 00-.526.892c-1.494-1.07-2.635-1.343-2.969-1.404a.463.463 0 00-.38.103c-.17.146-1.174 1.062-1.968 3.03-.01.023-.019.042-.028.066C.493 8.628.099 10.182 0 12.178c.038 1.156.216 2.335.535 3.5.32 1.164.766 2.268 1.344 3.315 1.343 2.02 2.564 2.522 3.56 2.522.592 0 1.108-.178 1.517-.319.216-.075 1.15-.338 1.305-.371.465.944 1.264 1.334 1.846 1.616a30.12 30.12 0 011.39.789c.498.328 1.165.77 2.09.77.879 0 1.987-.4 3.4-1.677a14.918 14.918 0 002.096-2.855 14.95 14.95 0 001.395-3.297c.563-2.753.314-4.796.004-6.026zm-3.03-.554c.423-.09.748-.108.959-.113.122.211.3.578.465 1.113l-2.381 1.926.958-2.926zM12.62 1.249a20.504 20.504 0 00-1.137 1.94.47.47 0 00.193.63c.07.037.146.051.216.051.17 0 .329-.09.413-.249.526-1 1-1.766 1.49-2.419.633.836 1.864 2.969 1.789 6.857a6.938 6.938 0 01-.057.437.14.14 0 00-.037.019c-.123.056-.25.113-.38.179l-.254.126-.146.075c-.474.254-.944.54-1.414.865-.033.018-.06.042-.094.065a13.881 13.881 0 00-.756.569c-.06.051-.127.103-.192.155-.085.066-.165.136-.25.206-.15.127-.3.259-.45.395a14.813 14.813 0 00-1.658 2.133c-.15.234-.296.474-.437.718l-.056.103c-.16.282-.306.568-.446.86-.005.004-.005.014-.01.023l-.01.024-.013.028-.047.103c.366-2.996 1.038-5.81 2.01-8.37a.467.467 0 00-.874-.328c-1.024 2.71-1.728 5.692-2.094 8.872-.085-.024-.165-.052-.254-.075-1.024-.287-2.301-.64-2.24-3.748.108-1.08.357-2.17.732-3.241.198-.564.442-1.132.724-1.695 0-.005 0-.005.004-.01.221-.437.456-.86.71-1.254 1.958-2.536 3.841-3.598 5.025-4.044zM7.98 19.933a22.7 22.7 0 00-1.325.385c-1.005.347-2.254.784-3.978-1.804a13.776 13.776 0 01-1.24-3.08 14.01 14.01 0 01-.502-3.246c.089-1.738.408-3.1.798-4.157.7-.033 1.4-.127 2.076-.296a.468.468 0 00-.225-.906 9.994 9.994 0 01-1.447.24c.488-1 1-1.597 1.263-1.865.423.108 1.334.423 2.485 1.273-.014.028-.024.06-.038.089a14.378 14.378 0 00-.559 1.367 15.19 15.19 0 00-.784 3.49c-.075 3.865 1.804 4.39 2.921 4.7.221.062.879.343.893.343h.019c-.01.024-.014.052-.024.08-.09.245-.164.48-.23.705-.005.014-.005.023-.01.037a9.18 9.18 0 00-.117.71c-.01.075-.014.15-.023.225-.014.146-.029.296-.038.432-.005.075-.005.141-.005.216-.004.141 0 .277.005.409.005.051.005.103.01.15.014.174.032.334.06.484.01.005.01.014.015.019zm11.6-3.978a13.985 13.985 0 01-1.3 3.057 13.94 13.94 0 01-1.936 2.649c-2.334 2.109-3.438 1.38-4.325.794a23.638 23.638 0 00-1.498-.855c-.569-.277-1.217-.597-1.522-1.442 0-.01 0-.019-.005-.023-.225-.649-.225-1.536-.005-2.635.057-.198.123-.4.193-.597a14.798 14.798 0 01.61-1.494l.024-.05v-.006a13.429 13.429 0 01.874-1.573c.145-.225.296-.446.45-.657l.005-.005v-.005a13.48 13.48 0 011.071-1.306c.193-.173.385-.338.573-.493.056-.047.113-.089.164-.136.141-.113.277-.22.414-.32l.169-.126c.145-.103.286-.207.427-.3l.127-.085a13.64 13.64 0 011.07-.639c.071-.038.142-.07.207-.103.1-.047.198-.099.292-.146.117-.056.234-.108.352-.155.22-.094.437-.178.634-.249l-2.02 6.176 5.101-4.128c.197 1.15.268 2.785-.146 4.852z"/></symbol><symbol viewBox="0 0 32 32" id="structure-seawed" xmlns="http://www.w3.org/2000/svg"><path d="M21.625 5a.47.47 0 00-.469.469.47.47 0 00.469.468.47.47 0 00.469-.468.47.47 0 00-.469-.469zm5.906 21.563h-2.639a1.17 1.17 0 00.155-.582v-1.097c0-.168.122-.286.295-.286h1.411c.69 0 1.247-.567 1.247-1.265 0-1.336-.52-2.588-1.462-3.535-.793-.792-2.129-.215-2.129.882a.31.31 0 01-.309.31h-1.41c-.156 0-.306.027-.446.083l-.146-.398a.308.308 0 01.183-.394l1.032-.375c.646-.234.98-.951.745-1.598l-.375-1.031a.308.308 0 01.183-.394c1.045-.38 1.106-1.828.098-2.302a4.978 4.978 0 00-3.82-.168c-.647.234-.98.951-.746 1.598l.375 1.031a.307.307 0 01-.182.394l-.638.23a1.218 1.218 0 00-.366-.891l-.778-.778a.306.306 0 010-.436l.778-.778a1.245 1.245 0 000-1.763 4.953 4.953 0 00-3.524-1.457c-1.12 0-1.66 1.35-.882 2.128a.306.306 0 010 .436l-.778.778a1.245 1.245 0 000 1.762l.778.778a.306.306 0 010 .436l-.29.29a1.265 1.265 0 00-.511-.35l-1.032-.376a.292.292 0 01-.173-.16.313.313 0 01-.01-.233l.376-1.032a1.25 1.25 0 00-.746-1.598 4.958 4.958 0 00-3.82.169c-1.003.468-.942 1.917.098 2.296.16.057.244.235.183.394l-.375 1.032a1.25 1.25 0 00.746 1.598l1.03.375c.16.056.245.234.184.394l-.146.393a1.213 1.213 0 00-.445-.084H7.89a.31.31 0 01-.309-.31c0-1.096-1.336-1.673-2.128-.88A5.083 5.083 0 004 23.346c0 .689.558 1.247 1.247 1.247h1.36c.173 0 .3.122.3.286v1.097c0 .21.05.407.145.58H4.469a.47.47 0 00-.469.47c0 .257.21.468.469.468H27.53a.466.466 0 100-.933zm-17.493 0a1.224 1.224 0 00-.783-.282H8.158a.308.308 0 01-.314-.3v-1.097c0-.689-.544-1.223-1.238-1.223h-1.36a.309.309 0 01-.309-.31 4.09 4.09 0 011.191-2.887.308.308 0 01.525.216c0 .689.558 1.247 1.247 1.247l1.36-.005a.33.33 0 01.243.117.383.383 0 00.056.094c.014.033.02.07.02.108v1.087c0 .699.552 1.266 1.232 1.266h1.097c.169 0 .295.122.295.286v1.097c0 .21.052.407.15.58h-2.316v.006zm4.523-.282h-1.097c-.173 0-.319-.136-.319-.3v-1.097c0-.689-.539-1.223-1.232-1.223h-1.097c-.16 0-.296-.15-.296-.328v-1.097c0-.15-.028-.295-.08-.431l.291-.802a1.25 1.25 0 00-.745-1.598l-1.031-.375a.304.304 0 01-.183-.394l.375-1.031a1.25 1.25 0 00-.745-1.599.306.306 0 01-.024-.567 4.029 4.029 0 013.103-.136c.16.056.244.234.183.394l-.375 1.031a1.24 1.24 0 00.745 1.594l1.032.375c.08.028.14.089.178.164a1.244 1.244 0 00.168 1.552l.779.778a.306.306 0 010 .436l-.779.778a1.245 1.245 0 000 1.762l1.229 1.228c-.085.263-.085.544.014.816l.028.08a1.15 1.15 0 00-.122-.01zm.684-1.608l-1.176-1.176a.306.306 0 010-.436l.778-.778a1.245 1.245 0 000-1.763l-.778-.778a.306.306 0 010-.436l.778-.778a1.245 1.245 0 000-1.762c-.713-.75-.867-.774-.867-.994a.3.3 0 01.089-.216l.778-.778a1.245 1.245 0 000-1.762.308.308 0 01.216-.525 4.02 4.02 0 012.868 1.19.306.306 0 010 .436l-.778.778a1.245 1.245 0 000 1.763l.778.778a.306.306 0 010 .436l-.778.778a1.245 1.245 0 000 1.763l.54.539-.718.262a1.24 1.24 0 00-.745 1.594l.375 1.031a.308.308 0 01-.183.394l-1.031.375a2.041 2.041 0 00-.146.065zm2.77-4.73l-.196-.196a.31.31 0 01-.024-.413c.024.075.02.057.22.61zm1.618 4.45l.375 1.03a.308.308 0 01-.183.394l-1.031.375a1.225 1.225 0 00-.525.37h-2.49l-.248-.68a.308.308 0 01.183-.393l1.031-.375c.647-.234.98-.951.746-1.598l-.375-1.032a.305.305 0 01.183-.394l1.03-.374c.16-.057.3-.146.423-.258l.004-.005.014-.014c.352-.342.474-.858.305-1.317L18.7 19.09a.308.308 0 01.183-.394l1.031-.375c.647-.235.98-.947.745-1.599l-.375-1.03a.308.308 0 01.183-.395 4.029 4.029 0 013.103.136.307.307 0 01-.023.568c-.647.234-.98.946-.745 1.593l.375 1.032a.308.308 0 01-.183.393l-1.032.375c-.646.235-.98.952-.745 1.599l.328.895c.005.07.028.14.066.202a.305.305 0 01-.202.328l-1.03.375a1.25 1.25 0 00-.746 1.598zm4.476.487v1.097c0 .173-.168.253-.323.253h-1.097c-.276 0-.553.117-.787.328h-1.486c.459-.31.675-.905.473-1.458l-.375-1.031a.308.308 0 01.183-.394l1.031-.375a1.24 1.24 0 00.806-1.34.343.343 0 01.15-.043h1.411c.69 0 1.247-.553 1.247-1.242 0-.277.333-.413.525-.216a4.005 4.005 0 011.195 2.87c0 .173-.145.327-.309.327h-1.41c-.695 0-1.234.54-1.234 1.224zM18.344 5.938a1.874 1.874 0 10-.001 3.748 1.874 1.874 0 000-3.748zm0 2.812a.94.94 0 01-.938-.938.94.94 0 01.938-.937.94.94 0 01.937.938.94.94 0 01-.937.937z"/><path d="M20.688 10.625a1.41 1.41 0 00-1.407 1.406 1.41 1.41 0 001.407 1.406 1.41 1.41 0 001.406-1.406 1.41 1.41 0 00-1.407-1.406zm0 1.875a.47.47 0 01-.47-.469.47.47 0 01.47-.469.47.47 0 01.468.47.47.47 0 01-.468.468z"/></symbol><symbol viewBox="0 0 32 32" id="structure-seed" xmlns="http://www.w3.org/2000/svg"><g clip-path="url(#bfclip0)"><path d="M26.482 14.145l-.178-.71-.658.536a5.304 5.304 0 00-.596-1.216l-.127-.179-.22-.019a5.062 5.062 0 00-.926.038l.291-.888-.812.197c-.226.057-.475.127-.742.216v-.004c.103-5.354-2.152-7.73-2.41-7.98-.005-.004-.01-.004-.014-.01-.005-.004-.01-.013-.014-.018-.033-.023-.066-.038-.103-.056-.02-.01-.033-.02-.052-.029A.53.53 0 0019.728 4h-.004c-.357.038-3.603.484-6.89 4.753-.188.287-.362.587-.526.892-1.494-1.07-2.635-1.343-2.969-1.404a.463.463 0 00-.38.103c-.17.146-1.174 1.062-1.968 3.03-.01.023-.019.042-.028.066-.47 1.188-.864 2.742-.963 4.739a15.12 15.12 0 00.535 3.498 15.1 15.1 0 001.344 3.316c1.343 2.02 2.564 2.523 3.56 2.523.591 0 1.108-.179 1.517-.32.216-.075 1.15-.338 1.305-.371.465.944 1.264 1.334 1.846 1.616a30.12 30.12 0 011.39.789c.498.328 1.165.77 2.09.77.879 0 1.987-.4 3.4-1.677a14.915 14.915 0 002.096-2.855 14.948 14.948 0 001.395-3.297c.563-2.753.314-4.796.004-6.026zm-3.03-.554c.423-.09.748-.108.959-.113.122.211.3.578.465 1.113l-2.381 1.926.958-2.926zM18.62 5.249a20.506 20.506 0 00-1.137 1.94.47.47 0 00.193.63c.07.037.146.051.216.051.17 0 .329-.09.413-.249.526-1 1-1.766 1.49-2.419.633.836 1.864 2.969 1.789 6.857a6.937 6.937 0 01-.057.437.14.14 0 00-.037.02c-.122.055-.25.112-.38.178l-.254.126-.146.075c-.474.254-.944.54-1.414.865-.033.018-.06.042-.094.065a14.03 14.03 0 00-.756.569 6.736 6.736 0 01-.192.155c-.085.066-.165.136-.25.206-.15.127-.3.259-.45.395a14.813 14.813 0 00-1.658 2.133c-.15.234-.296.474-.437.718l-.056.103c-.16.282-.306.568-.446.86-.005.004-.005.014-.01.023l-.01.024-.013.028-.047.103c.366-2.996 1.038-5.81 2.01-8.37a.467.467 0 00-.874-.328c-1.024 2.71-1.728 5.692-2.094 8.872-.085-.024-.165-.052-.254-.075-1.024-.287-2.301-.639-2.24-3.748.108-1.08.357-2.17.732-3.24.198-.565.442-1.133.724-1.696 0-.005 0-.005.004-.01.221-.437.456-.86.71-1.254 1.958-2.536 3.841-3.597 5.025-4.044zm-4.64 18.684c-.179.042-1.02.277-1.325.385-1.005.347-2.254.784-3.978-1.804a13.775 13.775 0 01-1.24-3.08c-.3-1.095-.47-2.199-.502-3.246.089-1.738.408-3.1.798-4.157.7-.033 1.4-.127 2.076-.296a.468.468 0 00-.225-.906 10 10 0 01-1.447.24c.488-1 1-1.597 1.263-1.865.423.108 1.334.423 2.485 1.273-.014.028-.024.06-.038.089a14.31 14.31 0 00-.558 1.367 15.185 15.185 0 00-.785 3.49c-.075 3.865 1.804 4.39 2.921 4.7.221.062.879.343.893.343h.019c-.01.024-.014.052-.024.08-.09.245-.164.48-.23.705-.005.014-.005.023-.01.037a9.18 9.18 0 00-.117.71c-.01.075-.014.15-.023.225a16.21 16.21 0 00-.038.432c-.005.075-.005.141-.005.216-.004.141 0 .277.005.409.005.051.005.103.01.15.014.174.032.334.06.484.01.005.01.014.015.019zm11.6-3.978a13.983 13.983 0 01-1.3 3.057 13.945 13.945 0 01-1.936 2.65c-2.334 2.108-3.438 1.38-4.325.793a23.638 23.638 0 00-1.498-.855c-.569-.277-1.217-.597-1.522-1.442 0-.01 0-.019-.005-.023-.225-.649-.225-1.536-.005-2.635.057-.198.122-.4.193-.597a14.904 14.904 0 01.61-1.494l.024-.05v-.006a13.431 13.431 0 01.874-1.573c.145-.225.295-.446.45-.658l.005-.004v-.005a13.48 13.48 0 011.071-1.306c.193-.173.385-.338.573-.493.056-.047.113-.089.164-.136.141-.113.277-.22.414-.32l.169-.126c.145-.103.286-.207.427-.3l.127-.085c.371-.245.728-.456 1.07-.639.071-.038.142-.07.207-.103.1-.047.198-.099.292-.146a11.886 11.886 0 01.986-.404l-2.02 6.176 5.101-4.128c.197 1.15.268 2.785-.146 4.852z"/><path d="M19.583 15.939c-.146.084-3.537 2.174-3.753 6.392a.464.464 0 00.442.489h.023a.468.468 0 00.465-.442c.188-3.71 3.269-5.622 3.302-5.64a.466.466 0 00-.48-.8z"/></g><defs><clipPath id="bfclip0"><path transform="translate(6 4)" d="M0 0h20.816v24H0z"/></clipPath></defs></symbol><symbol viewBox="0 0 24 25" id="structure-sugar" xmlns="http://www.w3.org/2000/svg"><path d="M.188 21.55c3.48 2.177 3.25 2.064 3.414 2.064.164 0-.042.094 3.204-1.928 3.25 2.031 3.044 1.928 3.203 1.928.16 0 0 .07 2.617-1.566a.402.402 0 00-.427-.68l-2.195 1.374-2.8-1.75v-2.758l1.464-.914a.402.402 0 00-.427-.68l-1.435.9-2.8-1.75v-2.757l2.8-1.75c1.561.976 1.458.93 1.57.948a.402.402 0 00.446-.244.4.4 0 00-.154-.483l-1.464-.915V7.832l2.8-1.75 2.8 1.75v.576a.398.398 0 10.798 0v-.576l2.8-1.75 2.8 1.75v2.978a.398.398 0 10.797 0V7.606a.395.395 0 00-.187-.337l-3.016-1.886V2.4a.395.395 0 00-.188-.337L13.418.06a.402.402 0 00-.421 0l-2.988 1.867L7.017.06a.402.402 0 00-.423 0L3.391 2.063a.401.401 0 00-.188.337v2.98L.188 7.264A.401.401 0 000 7.602v3.203c0 .136.07.268.188.338l3.015 1.885v2.758L.188 17.672a.401.401 0 00-.188.337v3.204c0 .136.07.262.188.337zM13.208.872l2.8 1.75V5.38l-2.8 1.749-2.8-1.75V2.622l2.8-1.75zm-6.402 0l2.8 1.75V5.38l-2.8 1.749-2.8-1.75V2.622l2.8-1.75zM.802 7.827l2.8-1.75 2.8 1.75v2.758l-2.8 1.75-2.8-1.75V7.827zm0 10.403l2.8-1.75 2.8 1.75v2.758l-2.8 1.75-2.8-1.75V18.23z"/><path d="M18.41 12.01v-.403a2.42 2.42 0 00-.84-1.824l.398-.802a.4.4 0 00-.717-.357l-.37.746a2.384 2.384 0 00-1.746 0l-.37-.746a.397.397 0 00-.333-.225.4.4 0 00-.385.582l.399.802a2.395 2.395 0 00-.844 1.824v.404c-.366-.005-.76-.005-1.201-.005-2.125 0-4.404.966-4.404 2.401 0 1.726 3.25 2.631 4.868 2.36-.037.318-.065.755-.065 1.045 0 2.8 1.2 5.038 2.8 5.361v.446a.398.398 0 10.797 0v-.45c1.6-.324 2.8-2.561 2.8-5.361 0-.286-.028-.727-.066-1.042 1.637.273 4.869-.642 4.869-2.359 0-1.435-2.275-2.401-4.404-2.401-.404 0-.811 0-1.187.005zm-4.002-.403a1.598 1.598 0 113.2 0v.422c-.54-.01-1.084.07-1.6.23a4.765 4.765 0 00-1.604-.23v-.422h.005zm1.604 2.552c.188.375.418.727.69 1.046h-1.384a5.63 5.63 0 00.694-1.046zm-7.208.248c0-.722 1.66-1.6 3.602-1.6.802 0 2.692-.013 3.19.146-.137.962-1.535 3.058-3.19 3.058-1.937-.004-3.602-.881-3.602-1.604zm5.689 1.6h3.025c.244.192.507.356.783.492l.043.31h-2.735a.398.398 0 100 .797h2.79c.02.267.015.535-.013.802H13.63a4.573 4.573 0 01-.014-.802h.39a.398.398 0 100-.797h-.334l.042-.32c.282-.13.54-.29.779-.482zm-.286 4.802h1.8a.398.398 0 100-.797h-2.096a7.631 7.631 0 01-.183-.802h4.564c-.047.272-.108.54-.183.802h-.497a.398.398 0 100 .797h.202c-.976 2.134-2.632 2.134-3.607 0zm9.005-6.402c0 .995-2.974 1.998-4.4 1.445a4.403 4.403 0 01-2.391-2.899c.576-.173 2.307-.145 3.189-.15 1.942.005 3.602.882 3.602 1.604z"/></symbol><symbol viewBox="0 0 24 24" id="tv" xmlns="http://www.w3.org/2000/svg"><g clip-path="url(#bhclip0)"><path d="M23.346 2.42c-.98.588-2.027.98-3.139 1.242a4.838 4.838 0 00-3.597-1.57c-2.746 0-4.904 2.29-4.904 5.036 0 .392.065.785.13 1.177C7.716 8.044 4.12 6.016 1.7 2.943a5.466 5.466 0 00-.654 2.55c0 1.766.85 3.27 2.224 4.185-.785 0-1.57-.261-2.224-.653v.13c0 2.42 1.7 4.513 3.924 4.97-.392.131-.85.197-1.308.197-.327 0-.654 0-.915-.066.654 2.027 2.42 3.466 4.577 3.532-1.7 1.373-3.793 2.157-6.147 2.157-.392 0-.785 0-1.177-.065a13.597 13.597 0 007.52 2.289c9.09 0 13.995-7.717 13.995-14.387v-.654c.98-.72 1.831-1.57 2.485-2.616-.85.393-1.831.654-2.812.785.98-.72 1.766-1.7 2.158-2.877z"/></g><defs><clipPath id="bhclip0"><path d="M0 0h24v24H0z"/></clipPath></defs></symbol><symbol viewBox="0 0 24 24" id="vk" xmlns="http://www.w3.org/2000/svg"><g clip-path="url(#biclip0)"><path d="M23.87 17.526c0-.066-.066-.13-.066-.13-.393-.72-1.243-1.701-2.42-2.748-.523-.523-.85-.85-.98-1.046-.262-.327-.328-.654-.197-.98.13-.262.458-.786 1.112-1.636.327-.457.588-.784.785-1.046C23.541 8.044 24.195 6.801 24 6.278l-.065-.13c-.066-.197-.197-.262-.393-.328-.196-.065-.458-.065-.785 0H18.9c-.13 0-.13.066-.13.066h-.066l-.065.065c-.066 0-.066.065-.131.13-.066.066-.066.132-.131.197-.392.98-.85 1.962-1.308 2.812-.327.523-.588.98-.85 1.373s-.458.654-.654.85l-.458.458c-.13.13-.261.13-.327.13-.065 0-.13-.065-.196-.065-.13-.065-.196-.196-.261-.327-.066-.13-.131-.261-.131-.457s-.066-.393-.066-.523V6.8c0-.261 0-.458-.065-.588 0-.131-.065-.262-.13-.393-.066-.13-.132-.261-.262-.327l-.393-.196c-.458-.13-.98-.13-1.7-.13-1.57 0-2.55.065-3.008.326-.196.066-.327.196-.458.393-.13.196-.196.261-.065.327.523.065.85.261 1.046.523l.065.13c.066.131.131.327.197.589.065.262.065.589.13.916a6.279 6.279 0 010 1.569c-.065.458-.065.785-.13.981-.066.261-.066.458-.197.588l-.13.262c0 .065-.066.065-.066.065a.583.583 0 01-.327.066c-.13 0-.261-.066-.392-.196-.196-.131-.327-.262-.523-.458a3.167 3.167 0 01-.589-.85c-.196-.393-.458-.785-.72-1.308l-.195-.392c-.131-.262-.327-.589-.524-1.047-.196-.458-.392-.85-.588-1.308-.066-.13-.196-.261-.327-.392h-.066c-.065-.065-.13-.065-.196-.13-.065 0-.196-.066-.261-.066H.85c-.393 0-.655.13-.786.261v.066C0 6.147 0 6.212 0 6.278c0 .065 0 .196.065.327a54.383 54.383 0 001.635 3.4c.589 1.112 1.112 1.962 1.504 2.616.458.654.85 1.308 1.308 1.897.458.588.72.98.916 1.111.13.197.261.262.327.393l.327.327c.196.196.523.457.85.72.392.26.785.522 1.308.85a6.105 6.105 0 001.635.653c.654.196 1.242.262 1.83.196h1.44a1 1 0 00.653-.261l.066-.066c.065-.065.065-.13.065-.261s.066-.196.066-.327c0-.327 0-.654.065-.981.065-.262.13-.523.196-.654.066-.13.196-.262.262-.392.13-.131.196-.131.196-.197.065 0 .065-.065.13-.065.197-.065.459 0 .72.196.262.196.523.458.785.72.261.261.523.588.85.98.327.328.654.654.85.785l.262.131c.196.13.392.196.654.262.261.065.523.13.719.065l3.204-.065c.327 0 .589-.066.72-.131.196-.131.261-.196.327-.327.065-.131.065-.262 0-.458 0 0 0-.13-.066-.196z"/></g><defs><clipPath id="biclip0"><path d="M0 0h24v24H0z"/></clipPath></defs></symbol><symbol viewBox="0 0 14 17" id="volume" xmlns="http://www.w3.org/2000/svg"><path d="M11.188.766L5.016 5.674a3.132 3.132 0 00-1.497-.372 3.158 3.158 0 00-3.16 3.16 3.158 3.158 0 003.16 3.161c.54 0 1.05-.14 1.497-.372l6.172 4.918c.809.641 1.999.065 1.999-.967V1.723c0-1.032-1.19-1.608-1.999-.957z"/></symbol><symbol viewBox="0 0 32 32" id="washing-powder" xmlns="http://www.w3.org/2000/svg"><path d="M8.481 11.45a.469.469 0 100-.938.469.469 0 000 .938zm3.007 0a.469.469 0 100-.937.469.469 0 000 .937zm-1.507 1.969a.469.469 0 100-.938.469.469 0 000 .938zm3.007 0a.469.469 0 100-.938.469.469 0 000 .938zm-9.05 0a.469.469 0 100-.938.469.469 0 000 .938zm3.037 0a.469.469 0 100-.938.469.469 0 000 .938zm3.006-3.944a.469.469 0 100-.938.469.469 0 000 .938zm-3.006 0a.469.469 0 100-.938.469.469 0 000 .938zM5.506 11.45a.469.469 0 100-.938.469.469 0 000 .938z"/><path d="M30.525 14.019h-4.469a.468.468 0 100 .937h4.469a.53.53 0 01.531.532v.156a.53.53 0 01-.444.525L16.42 18.53a.47.47 0 00-.394.463V21.5a3.542 3.542 0 01-3.537 3.538h-8.02A3.542 3.542 0 01.932 21.5v-6.544h22.813a.468.468 0 100-.937h-6.938a21.93 21.93 0 00-2.062-3.806C12.856 7.456 10.688 6 8.48 6 6.275 6 4.1 7.456 2.206 10.213.813 12.238.056 14.238.025 14.319v.006c-.006.013-.006.025-.013.038 0 .006 0 .006-.006.012C0 14.387 0 14.4 0 14.419V21.5a4.478 4.478 0 004.475 4.475h8.019a4.478 4.478 0 004.475-4.475v-2.106l13.8-2.3A1.47 1.47 0 0032 15.644v-.156a1.48 1.48 0 00-1.475-1.47zM8.481 6.937c3.832 0 6.488 5.232 7.313 7.075H1.169c.819-1.843 3.475-7.075 7.312-7.075z"/></symbol></svg>